<svg xmlns="http://www.w3.org/2000/svg" xmlns:xlink="http://www.w3.org/1999/xlink" width="150" zoomAndPan="magnify" viewBox="0 0 112.5 30.000001" height="40" preserveAspectRatio="xMidYMid meet" version="1.0"><defs><clipPath id="d53b5da6f4"><path d="M 24.886719 6 L 42.304688 6 L 42.304688 23.40625 L 24.886719 23.40625 Z M 24.886719 6 " clip-rule="nonzero"/></clipPath><clipPath id="8f04917036"><path d="M 24.886719 9 L 30 9 L 30 15 L 24.886719 15 Z M 24.886719 9 " clip-rule="nonzero"/></clipPath><clipPath id="90530c69cf"><path d="M 24.886719 15 L 31 15 L 31 23 L 24.886719 23 Z M 24.886719 15 " clip-rule="nonzero"/></clipPath><clipPath id="8fe20b4bde"><path d="M 32 8 L 42.304688 8 L 42.304688 22 L 32 22 Z M 32 8 " clip-rule="nonzero"/></clipPath><clipPath id="f51b391f61"><path d="M 33 14 L 42.304688 14 L 42.304688 23.40625 L 33 23.40625 Z M 33 14 " clip-rule="nonzero"/></clipPath><clipPath id="23136d9370"><path d="M 25 6 L 42.304688 6 L 42.304688 23.40625 L 25 23.40625 Z M 25 6 " clip-rule="nonzero"/></clipPath><clipPath id="32e47296cc"><path d="M 34 8 L 42.304688 8 L 42.304688 22 L 34 22 Z M 34 8 " clip-rule="nonzero"/></clipPath><clipPath id="50db82821b"><path d="M 47.449219 21 L 64.867188 21 L 64.867188 23.003906 L 47.449219 23.003906 Z M 47.449219 21 " clip-rule="nonzero"/></clipPath><clipPath id="61fea8fdaf"><path d="M 48 20 L 64.867188 20 L 64.867188 22 L 48 22 Z M 48 20 " clip-rule="nonzero"/></clipPath><clipPath id="eb46248477"><path d="M 47.449219 5.585938 L 64.867188 5.585938 L 64.867188 13 L 47.449219 13 Z M 47.449219 5.585938 " clip-rule="nonzero"/></clipPath><clipPath id="2cad8fad16"><path d="M 71.375 5.585938 L 84.4375 5.585938 L 84.4375 23.730469 L 71.375 23.730469 Z M 71.375 5.585938 " clip-rule="nonzero"/></clipPath></defs><g clip-path="url(#d53b5da6f4)"><path fill="#34b0b6" d="M 42.164062 14.835938 C 42.089844 19.605469 38.179688 23.410156 33.429688 23.335938 C 28.679688 23.261719 24.886719 19.332031 24.960938 14.566406 C 25.039062 9.796875 28.949219 5.992188 33.699219 6.066406 C 38.449219 6.140625 42.238281 10.066406 42.164062 14.835938 " fill-opacity="1" fill-rule="nonzero"/></g><g clip-path="url(#8f04917036)"><path fill="#518a29" d="M 24.960938 14.660156 C 25.019531 14.566406 25.078125 14.496094 25.109375 14.46875 C 25.230469 14.363281 25.589844 14.40625 25.664062 14.335938 C 25.742188 14.269531 25.980469 14.523438 25.980469 14.523438 C 26.027344 14.671875 26.054688 14.746094 26.105469 14.898438 C 26.15625 14.910156 26.179688 14.914062 26.230469 14.925781 C 26.226562 14.699219 26.230469 14.585938 26.238281 14.359375 C 26.441406 14.277344 26.546875 14.230469 26.757812 14.144531 C 26.757812 14.144531 26.765625 13.949219 26.804688 13.757812 C 26.84375 13.5625 27.40625 13.148438 27.40625 13.148438 C 27.726562 13.0625 27.890625 13.019531 28.222656 12.929688 C 28.171875 12.792969 28.148438 12.722656 28.097656 12.589844 C 27.996094 12.566406 27.941406 12.558594 27.839844 12.539062 C 27.882812 12.4375 27.90625 12.386719 27.953125 12.285156 C 28.265625 12.277344 28.425781 12.273438 28.753906 12.269531 C 28.726562 12.410156 28.710938 12.480469 28.6875 12.625 C 28.835938 12.667969 28.914062 12.6875 29.0625 12.730469 C 29.027344 12.496094 29.011719 12.378906 28.984375 12.148438 C 28.847656 11.695312 28.785156 11.476562 28.6875 11.058594 C 28.59375 11.175781 28.546875 11.234375 28.457031 11.347656 C 28.34375 11.355469 28.285156 11.355469 28.175781 11.363281 C 28.226562 11.191406 28.253906 11.101562 28.308594 10.933594 C 28.308594 10.933594 27.917969 10.824219 27.746094 10.859375 C 27.574219 10.894531 27.671875 11.066406 27.570312 11.191406 C 27.46875 11.320312 27.554688 11.613281 27.554688 11.613281 C 27.40625 11.707031 27.335938 11.753906 27.191406 11.847656 C 27.167969 12 27.160156 12.078125 27.144531 12.234375 C 27.011719 12.296875 26.949219 12.328125 26.820312 12.386719 C 26.84375 12.1875 26.859375 12.089844 26.890625 11.894531 C 26.6875 11.761719 26.59375 11.703125 26.410156 11.589844 C 26.460938 11.414062 26.488281 11.328125 26.542969 11.15625 C 27.042969 10.78125 27.542969 10.402344 28.042969 10.027344 C 28.027344 9.949219 28.023438 9.910156 28.015625 9.835938 C 27.863281 9.957031 27.789062 10.015625 27.640625 10.132812 C 27.679688 9.839844 27.703125 9.699219 27.765625 9.429688 C 27.765625 9.429688 27.355469 9.96875 27.304688 10.054688 C 27.25 10.144531 26.519531 10.265625 26.519531 10.265625 C 26.414062 10.222656 26.367188 10.203125 26.277344 10.175781 C 26.265625 10.171875 26.257812 10.167969 26.242188 10.164062 C 25.433594 11.597656 25.035156 13.011719 24.960938 14.660156 " fill-opacity="1" fill-rule="nonzero"/></g><g clip-path="url(#90530c69cf)"><path fill="#518a29" d="M 29.027344 17.597656 C 28.839844 17.394531 28.742188 17.292969 28.554688 17.089844 C 28.046875 16.804688 27.796875 16.660156 27.308594 16.386719 C 27.199219 16.433594 27.144531 16.453125 27.035156 16.496094 C 27.015625 16.390625 27.003906 16.339844 26.984375 16.234375 C 26.765625 16.378906 26.65625 16.445312 26.453125 16.574219 C 26.238281 16.394531 26.132812 16.308594 25.921875 16.136719 C 25.914062 16.019531 25.910156 15.957031 25.90625 15.839844 C 25.789062 15.816406 25.730469 15.808594 25.613281 15.785156 C 25.597656 15.621094 25.589844 15.542969 25.578125 15.378906 C 25.578125 15.453125 25.519531 15.628906 25.046875 15.511719 C 25.03125 15.507812 25.011719 15.503906 24.996094 15.496094 C 25.003906 15.582031 25.011719 15.625 25.019531 15.710938 C 25.269531 15.789062 25.53125 15.894531 25.566406 15.992188 C 25.628906 16.171875 26.269531 16.601562 26.398438 16.6875 C 26.023438 17.648438 26.960938 18.40625 27.609375 18.933594 C 27.851562 19.835938 28.183594 20.714844 28.609375 21.542969 C 28.835938 21.777344 28.953125 21.894531 29.175781 22.128906 C 29.03125 21.6875 28.976562 21.445312 28.90625 20.921875 C 28.90625 20.921875 29.011719 20.542969 29.15625 20.609375 C 29.300781 20.671875 29.917969 19.933594 29.914062 19.71875 C 29.90625 19.507812 30.269531 19.734375 30.269531 19.734375 C 30.261719 19.417969 30.257812 19.253906 30.261719 18.925781 C 30.386719 18.695312 30.457031 18.574219 30.59375 18.332031 C 30.070312 18.089844 29.550781 17.84375 29.027344 17.597656 " fill-opacity="1" fill-rule="nonzero"/></g><path fill="#518a29" d="M 28.144531 10.339844 C 28.144531 10.339844 28.609375 10.792969 28.617188 10.757812 C 28.621094 10.722656 29.132812 10.167969 29.132812 10.167969 C 29.230469 10.160156 29.28125 10.15625 29.382812 10.152344 C 29.269531 9.9375 29.214844 9.835938 29.113281 9.636719 C 29.175781 9.539062 29.207031 9.488281 29.269531 9.390625 C 29.269531 9.390625 28.980469 9.113281 29.023438 9.042969 C 29.066406 8.972656 28.667969 9.179688 28.820312 8.917969 C 28.96875 8.652344 28.597656 8.859375 28.597656 8.859375 C 28.34375 9.117188 28.214844 9.246094 27.957031 9.5 C 28.085938 9.496094 28.148438 9.496094 28.28125 9.5 C 28.28125 9.5 28.75 9.28125 28.703125 9.625 C 28.652344 9.96875 28.570312 10.171875 28.144531 10.339844 " fill-opacity="1" fill-rule="nonzero"/><path fill="#518a29" d="M 27.527344 9.164062 C 27.503906 9.132812 27.40625 9.277344 27.339844 9.355469 C 27.277344 9.433594 27.207031 9.402344 27.207031 9.351562 C 27.210938 9.300781 27.007812 9.46875 26.953125 9.453125 C 26.902344 9.4375 27.199219 9.230469 27.148438 9.21875 C 27.097656 9.207031 26.914062 9.300781 26.914062 9.300781 C 26.785156 9.4375 26.71875 9.503906 26.589844 9.640625 C 26.5625 9.679688 26.546875 9.703125 26.519531 9.742188 C 26.570312 9.703125 26.597656 9.683594 26.652344 9.640625 C 26.652344 9.640625 26.734375 9.613281 26.71875 9.640625 C 26.699219 9.664062 26.515625 9.839844 26.515625 9.839844 C 26.484375 9.949219 26.476562 10.003906 26.460938 10.125 C 26.769531 9.957031 26.929688 9.875 27.253906 9.71875 C 27.253906 9.71875 27.546875 9.195312 27.527344 9.164062 " fill-opacity="1" fill-rule="nonzero"/><path fill="#518a29" d="M 27.414062 10.652344 C 27.511719 10.558594 27.5625 10.507812 27.660156 10.414062 C 27.703125 10.480469 27.722656 10.519531 27.769531 10.589844 C 27.6875 10.628906 27.648438 10.648438 27.570312 10.6875 C 27.507812 10.671875 27.476562 10.667969 27.414062 10.652344 " fill-opacity="1" fill-rule="nonzero"/><path fill="#518a29" d="M 27.570312 9.4375 C 27.597656 9.359375 27.609375 9.320312 27.636719 9.242188 C 27.6875 9.21875 27.710938 9.207031 27.757812 9.179688 C 27.8125 9.097656 27.84375 9.058594 27.898438 8.976562 C 27.949219 8.972656 27.976562 8.96875 28.027344 8.964844 C 27.949219 9.070312 27.910156 9.125 27.832031 9.230469 C 27.886719 9.214844 27.910156 9.207031 27.964844 9.195312 C 27.808594 9.292969 27.726562 9.339844 27.570312 9.4375 " fill-opacity="1" fill-rule="nonzero"/><path fill="#518a29" d="M 28.027344 9.128906 C 28.085938 9.042969 28.117188 9 28.175781 8.914062 C 28.261719 8.890625 28.304688 8.882812 28.398438 8.863281 C 28.25 8.96875 28.175781 9.019531 28.027344 9.128906 " fill-opacity="1" fill-rule="nonzero"/><path fill="#518a29" d="M 27.417969 9.078125 C 27.417969 9.011719 27.417969 8.980469 27.425781 8.917969 C 27.578125 8.792969 27.65625 8.730469 27.8125 8.609375 C 27.902344 8.570312 27.945312 8.550781 28.042969 8.511719 C 28.027344 8.578125 28.019531 8.613281 28.007812 8.683594 C 27.769531 8.839844 27.652344 8.917969 27.417969 9.078125 " fill-opacity="1" fill-rule="nonzero"/><path fill="#518a29" d="M 28.652344 8.285156 C 28.722656 8.273438 28.757812 8.269531 28.832031 8.261719 C 28.84375 8.359375 28.851562 8.410156 28.871094 8.511719 C 28.988281 8.476562 29.046875 8.460938 29.164062 8.429688 C 29.125 8.492188 29.105469 8.523438 29.0625 8.585938 C 28.921875 8.609375 28.851562 8.621094 28.714844 8.648438 C 28.667969 8.570312 28.648438 8.53125 28.609375 8.460938 C 28.625 8.390625 28.632812 8.355469 28.652344 8.285156 " fill-opacity="1" fill-rule="nonzero"/><path fill="#518a29" d="M 28.972656 8.277344 C 29.105469 8.277344 29.171875 8.277344 29.3125 8.289062 C 29.613281 8.015625 29.761719 7.878906 30.054688 7.609375 C 30.035156 7.570312 30.023438 7.550781 30.007812 7.515625 C 30.140625 7.46875 30.210938 7.445312 30.347656 7.40625 C 30.65625 7.160156 30.808594 7.039062 31.105469 6.804688 C 31.105469 6.804688 31.039062 6.164062 29.957031 6.957031 C 29.851562 7.035156 29.988281 7.3125 29.988281 7.3125 C 29.589844 7.695312 29.386719 7.886719 28.972656 8.277344 " fill-opacity="1" fill-rule="nonzero"/><path fill="#518a29" d="M 29.105469 7.933594 C 29.300781 7.800781 29.398438 7.734375 29.597656 7.609375 C 29.597656 7.609375 29.832031 7.058594 29.746094 7.117188 C 29.65625 7.171875 29.320312 7.515625 29.320312 7.515625 C 29.230469 7.679688 29.1875 7.765625 29.105469 7.933594 " fill-opacity="1" fill-rule="nonzero"/><path fill="#518a29" d="M 29.957031 8.25 C 30.003906 8.03125 30.03125 7.925781 30.082031 7.714844 C 30.234375 7.664062 30.3125 7.640625 30.464844 7.589844 C 30.808594 7.28125 30.980469 7.125 31.3125 6.828125 C 31.496094 6.804688 31.589844 6.796875 31.777344 6.785156 C 31.777344 6.785156 32.304688 6.34375 32.507812 6.339844 C 32.710938 6.339844 33.171875 6.789062 33.164062 6.878906 C 33.160156 6.96875 33.558594 6.941406 33.558594 6.941406 C 33.378906 7.09375 33.289062 7.171875 33.105469 7.328125 C 33.042969 7.617188 33.011719 7.765625 32.949219 8.066406 C 32.949219 8.066406 32.621094 8.640625 32.675781 8.796875 C 32.734375 8.957031 32.386719 8.554688 32.386719 8.554688 C 32.371094 8.652344 32.367188 8.699219 32.351562 8.800781 C 32.445312 8.921875 32.492188 8.984375 32.589844 9.113281 C 32.523438 9.140625 32.488281 9.152344 32.421875 9.183594 C 32.320312 9.097656 32.273438 9.054688 32.179688 8.96875 C 32.128906 9.089844 32.105469 9.152344 32.058594 9.273438 C 32.214844 9.292969 32.292969 9.300781 32.453125 9.320312 C 31.910156 9.585938 31.636719 9.730469 31.085938 10.019531 C 30.808594 10.414062 30.667969 10.613281 30.386719 11.011719 C 30.386719 11.011719 29.679688 10.4375 30.003906 10.050781 C 30.054688 9.988281 30.277344 9.703125 30.277344 9.703125 C 30.316406 9.136719 30.34375 8.863281 30.410156 8.335938 C 30.222656 8.296875 30.132812 8.277344 29.957031 8.25 " fill-opacity="1" fill-rule="nonzero"/><g clip-path="url(#8fe20b4bde)"><path fill="#518a29" d="M 42.082031 15.917969 C 42.296875 13.6875 41.859375 11.75 40.679688 9.847656 C 40.597656 9.8125 40.550781 9.800781 40.550781 9.800781 C 40.480469 9.65625 40.441406 9.585938 40.359375 9.453125 C 40.230469 9.328125 40.164062 9.265625 40.035156 9.140625 C 39.996094 9.125 39.976562 9.117188 39.9375 9.101562 C 39.789062 8.964844 39.714844 8.898438 39.566406 8.761719 C 39.625 8.890625 39.652344 8.953125 39.699219 9.089844 C 39.582031 9.082031 39.519531 9.082031 39.386719 9.09375 C 39.429688 9.214844 39.449219 9.277344 39.484375 9.40625 C 39.414062 9.390625 39.375 9.378906 39.300781 9.363281 C 39.609375 9.679688 39.765625 9.839844 40.078125 10.148438 C 39.789062 9.914062 39.648438 9.796875 39.359375 9.554688 C 39.273438 9.601562 39.230469 9.625 39.136719 9.679688 C 39.042969 9.578125 38.992188 9.527344 38.898438 9.425781 C 38.839844 9.503906 38.804688 9.542969 38.738281 9.628906 C 38.886719 9.796875 38.960938 9.882812 39.113281 10.050781 C 38.972656 10.007812 38.90625 9.988281 38.761719 9.949219 C 38.742188 10.03125 38.734375 10.074219 38.710938 10.15625 C 38.496094 10.105469 38.386719 10.082031 38.164062 10.035156 C 37.765625 10.203125 37.550781 10.300781 37.101562 10.519531 C 37.101562 10.519531 36.730469 10.125 36.777344 10.085938 C 36.820312 10.046875 37.230469 10.261719 37.230469 10.261719 C 37.230469 10.261719 37.371094 10.222656 37.390625 10.082031 C 37.410156 9.945312 36.355469 9.457031 36.113281 9.378906 C 35.871094 9.300781 35.457031 9.363281 35.367188 9.871094 C 35.277344 10.378906 34.699219 10.554688 34.648438 10.933594 C 34.597656 11.3125 34.816406 11.3125 34.851562 11.316406 C 34.882812 11.316406 35.042969 11.03125 35.042969 11.03125 C 35.042969 11.03125 35.164062 11 35.167969 11.210938 C 35.171875 11.421875 35.429688 11.667969 35.429688 11.667969 C 35.429688 11.667969 35.535156 11.761719 35.699219 11.511719 C 35.867188 11.261719 35.664062 10.855469 35.664062 10.855469 C 35.664062 10.855469 35.582031 10.609375 35.90625 10.59375 C 36.230469 10.574219 36.375 11.257812 36.375 11.257812 C 36.375 11.257812 36.011719 11.746094 35.992188 11.8125 C 35.972656 11.882812 35.546875 11.886719 35.546875 11.886719 C 35.414062 11.878906 35.347656 11.875 35.214844 11.871094 C 35.160156 11.703125 35.136719 11.621094 35.085938 11.457031 C 35.035156 11.5 35.011719 11.519531 34.964844 11.5625 C 34.972656 11.726562 34.972656 11.808594 34.980469 11.972656 C 34.875 11.96875 34.820312 11.964844 34.710938 11.960938 C 34.679688 12.050781 34.664062 12.097656 34.632812 12.1875 C 34.40625 12.324219 34.292969 12.394531 34.058594 12.535156 C 33.941406 12.558594 33.878906 12.566406 33.757812 12.589844 C 33.863281 12.664062 33.917969 12.703125 34.023438 12.773438 C 34.027344 12.949219 34.027344 13.035156 34.03125 13.207031 C 33.765625 13.203125 33.632812 13.203125 33.367188 13.199219 C 33.367188 13.199219 33.191406 13.75 33.191406 13.792969 C 33.246094 13.863281 33.273438 13.898438 33.328125 13.96875 C 33.441406 13.941406 33.5 13.929688 33.613281 13.90625 C 33.648438 13.972656 33.667969 14.003906 33.703125 14.070312 C 33.882812 14.007812 33.972656 13.976562 34.148438 13.917969 C 34.148438 13.917969 34.363281 13.566406 34.351562 13.511719 C 34.339844 13.460938 34.644531 13.222656 34.710938 13.246094 C 34.742188 13.257812 34.8125 13.21875 34.886719 13.179688 C 34.988281 13.128906 35.09375 13.082031 35.113281 13.140625 C 35.144531 13.246094 35.691406 13.632812 35.691406 13.632812 C 35.757812 13.703125 35.792969 13.738281 35.859375 13.808594 C 35.921875 13.730469 35.953125 13.691406 36.015625 13.613281 C 36.015625 13.613281 35.453125 13.332031 35.417969 13.140625 C 35.382812 12.953125 35.675781 12.996094 35.675781 12.996094 C 35.675781 12.996094 36.136719 13.074219 36.226562 13.558594 C 36.320312 14.039062 36.441406 13.984375 36.441406 13.984375 C 36.441406 13.984375 36.628906 13.980469 36.472656 13.847656 C 36.316406 13.71875 36.679688 13.402344 36.679688 13.402344 C 36.695312 13.46875 36.699219 13.5 36.714844 13.566406 C 36.785156 13.574219 36.820312 13.578125 36.890625 13.585938 C 36.9375 13.554688 36.960938 13.539062 37.011719 13.507812 C 37.011719 13.507812 36.910156 13.402344 36.910156 13.339844 C 36.90625 13.277344 37.171875 12.9375 37.171875 12.9375 C 37.242188 12.941406 37.28125 12.945312 37.351562 12.949219 C 37.382812 13.03125 37.394531 13.074219 37.421875 13.15625 C 37.511719 13.148438 37.558594 13.144531 37.648438 13.136719 C 37.578125 13.050781 37.539062 13.007812 37.46875 12.917969 C 37.621094 12.902344 37.699219 12.898438 37.847656 12.886719 C 37.925781 13.023438 37.964844 13.09375 38.042969 13.234375 C 38.125 13.386719 38.164062 13.460938 38.242188 13.609375 C 38.242188 13.609375 37.28125 13.550781 37.21875 13.558594 C 37.152344 13.566406 36.878906 13.65625 36.859375 13.769531 C 36.839844 13.882812 37.136719 14.089844 37.136719 14.089844 C 37.402344 14.121094 37.535156 14.136719 37.796875 14.171875 C 37.753906 14.359375 37.730469 14.457031 37.6875 14.648438 C 37.171875 14.585938 36.914062 14.550781 36.382812 14.488281 C 36.3125 14.589844 36.28125 14.644531 36.210938 14.75 C 35.855469 14.589844 35.675781 14.507812 35.308594 14.347656 C 35.257812 14.234375 35.230469 14.179688 35.175781 14.066406 C 35.175781 14.066406 34.289062 14.070312 34.136719 14.054688 C 33.984375 14.042969 33.605469 14.253906 33.605469 14.253906 C 33.605469 14.253906 33.316406 14.757812 33.199219 14.789062 C 33.082031 14.820312 32.667969 15.351562 32.550781 15.457031 C 32.433594 15.5625 32.40625 16.335938 32.40625 16.335938 C 32.816406 16.75 33.023438 16.953125 33.429688 17.355469 C 33.871094 17.308594 34.09375 17.285156 34.53125 17.230469 C 34.746094 17.3125 34.851562 17.351562 35.0625 17.429688 C 35.195312 17.960938 35.503906 18.90625 35.382812 19.078125 C 35.363281 19.101562 35.171875 19.328125 35.171875 19.328125 C 35.171875 19.328125 35.503906 19.722656 35.46875 19.96875 C 35.433594 20.210938 35.6875 21.042969 35.6875 21.042969 C 35.6875 21.042969 36.25 20.894531 36.3125 20.859375 C 36.371094 20.824219 36.871094 20.367188 36.871094 20.367188 C 36.917969 20.238281 36.941406 20.175781 36.984375 20.046875 C 37.113281 19.949219 37.179688 19.902344 37.3125 19.804688 C 37.355469 19.683594 37.378906 19.621094 37.425781 19.5 C 37.640625 19.300781 37.75 19.203125 37.96875 19.003906 C 38.003906 18.667969 38.015625 18.492188 38.035156 18.140625 C 38.574219 17.6875 39.066406 17.226562 39.371094 16.578125 C 39.128906 16.652344 39.007812 16.6875 38.761719 16.761719 C 38.363281 16.28125 37.59375 15.519531 37.632812 15.109375 C 37.648438 14.96875 37.847656 15.089844 37.847656 15.089844 C 38.183594 15.535156 38.515625 15.980469 38.84375 16.425781 C 39.503906 16.335938 40.125 15.527344 40.125 15.527344 C 39.984375 15.445312 39.914062 15.402344 39.769531 15.3125 C 39.640625 15.355469 39.574219 15.375 39.441406 15.421875 C 39.441406 15.421875 39.347656 15.320312 39.140625 15.046875 C 38.933594 14.773438 39.277344 14.835938 39.277344 14.835938 C 39.625 15 39.796875 15.078125 40.128906 15.226562 C 40.351562 15.234375 40.460938 15.238281 40.679688 15.246094 C 40.882812 15.386719 40.984375 15.453125 41.175781 15.582031 C 41.175781 15.582031 41.546875 16.324219 41.519531 16.429688 C 41.492188 16.535156 41.746094 16.472656 41.867188 16.363281 C 41.992188 16.257812 41.980469 15.992188 41.980469 15.992188 C 41.980469 15.992188 42.019531 15.964844 42.082031 15.917969 " fill-opacity="1" fill-rule="nonzero"/></g><path fill="#518a29" d="M 33.726562 12.359375 C 33.734375 12.339844 33.816406 12.023438 33.816406 12.023438 C 33.828125 11.914062 33.832031 11.855469 33.84375 11.75 C 33.777344 11.6875 33.742188 11.660156 33.675781 11.601562 C 33.625 11.527344 33.597656 11.492188 33.542969 11.421875 C 33.65625 11.355469 33.714844 11.324219 33.824219 11.257812 C 33.894531 11.277344 33.929688 11.289062 33.996094 11.308594 C 33.972656 11.375 33.960938 11.410156 33.9375 11.476562 C 33.949219 11.527344 33.957031 11.554688 33.972656 11.605469 C 33.972656 11.605469 34.226562 11.886719 34.25 11.921875 C 34.273438 11.957031 34.347656 12.1875 34.347656 12.1875 C 34.347656 12.1875 33.695312 12.507812 33.726562 12.359375 " fill-opacity="1" fill-rule="nonzero"/><path fill="#518a29" d="M 33.296875 12.054688 C 33.296875 12.054688 33.269531 11.765625 33.339844 11.761719 C 33.410156 11.753906 33.5 11.6875 33.5 11.6875 C 33.546875 11.691406 33.570312 11.695312 33.613281 11.703125 C 33.636719 11.839844 33.648438 11.910156 33.671875 12.046875 C 33.671875 12.046875 33.355469 12.160156 33.296875 12.054688 " fill-opacity="1" fill-rule="nonzero"/><path fill="#518a29" d="M 38.167969 19.730469 C 38.214844 19.46875 38.234375 19.339844 38.269531 19.070312 C 38.269531 19.070312 38.75 18.773438 38.804688 18.695312 C 38.855469 18.621094 38.808594 19.085938 38.675781 19.242188 C 38.542969 19.402344 38.167969 19.730469 38.167969 19.730469 " fill-opacity="1" fill-rule="nonzero"/><g clip-path="url(#f51b391f61)"><path fill="#d3d2d2" d="M 33.566406 23.335938 C 37.890625 23.335938 41.488281 20.121094 42.082031 15.917969 C 41.488281 20.121094 37.890625 23.335938 33.566406 23.335938 M 33.425781 23.335938 L 33.425781 23.335938 M 42.082031 15.914062 C 42.128906 15.566406 42.160156 15.210938 42.164062 14.851562 C 42.160156 15.210938 42.128906 15.566406 42.082031 15.914062 M 42.164062 14.84375 C 42.164062 14.839844 42.164062 14.839844 42.164062 14.835938 C 42.164062 14.839844 42.164062 14.839844 42.164062 14.84375 M 42.164062 14.832031 L 42.164062 14.828125 C 42.164062 14.828125 42.164062 14.828125 42.164062 14.832031 " fill-opacity="1" fill-rule="nonzero"/></g><g clip-path="url(#23136d9370)"><path fill="#2b9196" d="M 33.566406 23.335938 C 33.519531 23.335938 33.476562 23.335938 33.429688 23.335938 C 33.425781 23.335938 33.425781 23.335938 33.425781 23.335938 C 30.15625 23.28125 27.339844 21.402344 25.929688 18.683594 C 26.488281 18.929688 27.082031 19.117188 27.695312 19.242188 C 27.929688 20.035156 28.230469 20.808594 28.609375 21.542969 C 28.835938 21.777344 28.953125 21.894531 29.175781 22.128906 C 29.03125 21.6875 28.976562 21.445312 28.90625 20.921875 C 28.90625 20.921875 28.996094 20.601562 29.121094 20.601562 C 29.132812 20.601562 29.144531 20.601562 29.15625 20.609375 C 29.160156 20.609375 29.167969 20.613281 29.175781 20.613281 C 29.351562 20.613281 29.917969 19.921875 29.914062 19.71875 C 29.910156 19.652344 29.945312 19.628906 29.996094 19.628906 C 30.101562 19.628906 30.269531 19.734375 30.269531 19.734375 C 30.265625 19.585938 30.261719 19.472656 30.261719 19.363281 C 32.027344 19.183594 33.636719 18.46875 34.921875 17.378906 C 34.964844 17.394531 35.011719 17.410156 35.0625 17.429688 C 35.195312 17.960938 35.503906 18.90625 35.382812 19.078125 C 35.363281 19.101562 35.171875 19.328125 35.171875 19.328125 C 35.171875 19.328125 35.503906 19.722656 35.46875 19.96875 C 35.433594 20.210938 35.6875 21.042969 35.6875 21.042969 C 35.6875 21.042969 36.25 20.894531 36.3125 20.859375 C 36.371094 20.824219 36.871094 20.367188 36.871094 20.367188 C 36.917969 20.238281 36.941406 20.175781 36.984375 20.046875 C 37.113281 19.949219 37.179688 19.902344 37.3125 19.804688 C 37.355469 19.683594 37.378906 19.621094 37.425781 19.5 C 37.640625 19.300781 37.75 19.203125 37.96875 19.003906 C 38.003906 18.667969 38.015625 18.492188 38.035156 18.140625 C 38.574219 17.6875 39.066406 17.226562 39.371094 16.578125 C 39.128906 16.652344 39.007812 16.6875 38.761719 16.761719 C 38.363281 16.28125 37.59375 15.519531 37.632812 15.109375 C 37.640625 15.058594 37.667969 15.042969 37.707031 15.042969 C 37.769531 15.042969 37.847656 15.089844 37.847656 15.089844 C 38.183594 15.535156 38.515625 15.980469 38.84375 16.425781 C 39.503906 16.335938 40.125 15.527344 40.125 15.527344 C 39.984375 15.445312 39.914062 15.402344 39.769531 15.3125 C 39.640625 15.355469 39.574219 15.375 39.441406 15.421875 C 39.441406 15.421875 39.347656 15.320312 39.140625 15.046875 C 38.996094 14.859375 39.117188 14.828125 39.207031 14.828125 C 39.246094 14.828125 39.277344 14.835938 39.277344 14.835938 C 39.625 15 39.796875 15.078125 40.128906 15.226562 C 40.351562 15.234375 40.460938 15.238281 40.679688 15.246094 C 40.882812 15.386719 40.984375 15.453125 41.175781 15.582031 C 41.175781 15.582031 41.546875 16.324219 41.519531 16.429688 C 41.511719 16.46875 41.539062 16.484375 41.582031 16.484375 C 41.660156 16.484375 41.789062 16.433594 41.867188 16.363281 C 41.992188 16.257812 41.980469 15.992188 41.980469 15.992188 C 41.980469 15.992188 42.019531 15.964844 42.082031 15.917969 C 41.488281 20.121094 37.890625 23.335938 33.566406 23.335938 M 38.8125 18.6875 C 38.8125 18.6875 38.808594 18.691406 38.804688 18.695312 C 38.75 18.773438 38.269531 19.070312 38.269531 19.070312 C 38.234375 19.339844 38.214844 19.46875 38.167969 19.730469 C 38.167969 19.730469 38.542969 19.402344 38.675781 19.242188 C 38.796875 19.097656 38.847656 18.6875 38.8125 18.6875 M 42.082031 15.914062 C 42.296875 13.683594 41.859375 11.75 40.679688 9.847656 C 40.597656 9.8125 40.550781 9.800781 40.550781 9.800781 C 40.480469 9.65625 40.441406 9.585938 40.359375 9.453125 C 40.230469 9.328125 40.164062 9.265625 40.035156 9.140625 C 39.996094 9.125 39.976562 9.117188 39.9375 9.101562 C 39.789062 8.964844 39.714844 8.898438 39.566406 8.761719 C 39.625 8.890625 39.652344 8.953125 39.699219 9.089844 C 39.644531 9.085938 39.601562 9.085938 39.558594 9.085938 C 39.511719 9.085938 39.460938 9.085938 39.386719 9.09375 C 39.429688 9.214844 39.449219 9.277344 39.484375 9.40625 C 39.414062 9.390625 39.375 9.378906 39.300781 9.363281 C 39.609375 9.679688 39.765625 9.839844 40.078125 10.148438 C 39.789062 9.914062 39.648438 9.796875 39.359375 9.554688 C 39.273438 9.601562 39.230469 9.625 39.136719 9.679688 C 39.042969 9.578125 38.992188 9.527344 38.898438 9.425781 C 38.839844 9.503906 38.804688 9.542969 38.738281 9.628906 C 38.886719 9.796875 38.960938 9.882812 39.113281 10.050781 C 38.972656 10.007812 38.90625 9.988281 38.761719 9.949219 C 38.742188 10.03125 38.734375 10.074219 38.710938 10.15625 C 38.496094 10.105469 38.386719 10.082031 38.164062 10.035156 C 38.089844 10.066406 38.023438 10.09375 37.960938 10.121094 C 37.875 8.929688 37.542969 7.800781 37.019531 6.789062 C 40.09375 8.144531 42.21875 11.25 42.164062 14.828125 L 42.164062 14.832031 C 42.164062 14.832031 42.164062 14.832031 42.164062 14.835938 C 42.164062 14.839844 42.164062 14.839844 42.164062 14.84375 C 42.164062 14.847656 42.164062 14.851562 42.164062 14.851562 C 42.160156 15.210938 42.128906 15.566406 42.082031 15.914062 M 37.6875 14.648438 C 37.457031 14.621094 37.28125 14.597656 37.109375 14.578125 C 37.183594 14.425781 37.253906 14.269531 37.320312 14.113281 C 37.476562 14.132812 37.601562 14.148438 37.796875 14.171875 C 37.753906 14.359375 37.730469 14.457031 37.6875 14.648438 M 38.242188 13.609375 C 38.242188 13.609375 37.828125 13.585938 37.523438 13.570312 C 37.597656 13.347656 37.664062 13.125 37.722656 12.894531 C 37.761719 12.894531 37.800781 12.890625 37.847656 12.886719 C 37.925781 13.023438 37.964844 13.09375 38.042969 13.234375 C 38.125 13.386719 38.164062 13.460938 38.242188 13.609375 " fill-opacity="1" fill-rule="nonzero"/></g><path fill="#437221" d="M 29.175781 22.128906 C 28.953125 21.894531 28.835938 21.777344 28.609375 21.542969 C 28.230469 20.808594 27.929688 20.035156 27.695312 19.242188 C 28.199219 19.339844 28.71875 19.398438 29.25 19.40625 C 29.296875 19.40625 29.339844 19.40625 29.386719 19.40625 C 29.683594 19.40625 29.972656 19.390625 30.261719 19.363281 C 30.261719 19.472656 30.265625 19.585938 30.269531 19.734375 C 30.269531 19.734375 30.101562 19.628906 29.996094 19.628906 C 29.945312 19.628906 29.910156 19.652344 29.914062 19.71875 C 29.917969 19.921875 29.351562 20.613281 29.175781 20.613281 C 29.167969 20.613281 29.160156 20.609375 29.15625 20.609375 C 29.144531 20.601562 29.132812 20.601562 29.121094 20.601562 C 28.996094 20.601562 28.90625 20.921875 28.90625 20.921875 C 28.976562 21.445312 29.03125 21.6875 29.175781 22.128906 " fill-opacity="1" fill-rule="nonzero"/><g clip-path="url(#32e47296cc)"><path fill="#437221" d="M 35.6875 21.042969 C 35.6875 21.042969 35.433594 20.210938 35.46875 19.96875 C 35.503906 19.722656 35.171875 19.328125 35.171875 19.328125 C 35.171875 19.328125 35.363281 19.101562 35.382812 19.078125 C 35.503906 18.90625 35.195312 17.960938 35.0625 17.429688 C 35.011719 17.410156 34.964844 17.394531 34.921875 17.378906 C 35.832031 16.609375 36.578125 15.65625 37.109375 14.578125 C 37.28125 14.597656 37.457031 14.621094 37.6875 14.648438 C 37.730469 14.457031 37.753906 14.359375 37.796875 14.171875 C 37.601562 14.148438 37.476562 14.132812 37.320312 14.113281 C 37.394531 13.933594 37.460938 13.753906 37.523438 13.570312 C 37.828125 13.585938 38.242188 13.609375 38.242188 13.609375 C 38.164062 13.460938 38.125 13.386719 38.042969 13.234375 C 37.964844 13.09375 37.925781 13.023438 37.847656 12.886719 C 37.800781 12.890625 37.761719 12.894531 37.722656 12.894531 C 37.882812 12.257812 37.972656 11.59375 37.984375 10.90625 C 37.988281 10.640625 37.980469 10.378906 37.960938 10.121094 C 38.023438 10.09375 38.089844 10.066406 38.164062 10.035156 C 38.386719 10.082031 38.496094 10.105469 38.710938 10.15625 C 38.734375 10.074219 38.742188 10.03125 38.761719 9.949219 C 38.90625 9.988281 38.972656 10.007812 39.113281 10.050781 C 38.960938 9.882812 38.886719 9.796875 38.738281 9.628906 C 38.804688 9.542969 38.839844 9.503906 38.898438 9.425781 C 38.992188 9.527344 39.042969 9.578125 39.136719 9.679688 C 39.230469 9.625 39.273438 9.601562 39.359375 9.554688 C 39.648438 9.796875 39.789062 9.914062 40.078125 10.148438 C 39.765625 9.839844 39.609375 9.679688 39.300781 9.363281 C 39.375 9.378906 39.414062 9.390625 39.484375 9.40625 C 39.449219 9.277344 39.429688 9.214844 39.386719 9.09375 C 39.460938 9.085938 39.511719 9.085938 39.558594 9.085938 C 39.601562 9.085938 39.644531 9.085938 39.699219 9.089844 C 39.652344 8.953125 39.625 8.890625 39.566406 8.761719 C 39.714844 8.898438 39.789062 8.964844 39.9375 9.101562 C 39.976562 9.117188 39.996094 9.125 40.035156 9.140625 C 40.164062 9.265625 40.230469 9.328125 40.359375 9.453125 C 40.441406 9.585938 40.480469 9.65625 40.550781 9.800781 C 40.550781 9.800781 40.597656 9.8125 40.679688 9.847656 C 41.859375 11.75 42.296875 13.683594 42.082031 15.914062 C 42.082031 15.914062 42.082031 15.917969 42.082031 15.917969 C 42.019531 15.964844 41.980469 15.992188 41.980469 15.992188 C 41.980469 15.992188 41.992188 16.257812 41.867188 16.363281 C 41.789062 16.433594 41.660156 16.484375 41.582031 16.484375 C 41.539062 16.484375 41.511719 16.46875 41.519531 16.429688 C 41.546875 16.324219 41.175781 15.582031 41.175781 15.582031 C 40.984375 15.453125 40.882812 15.386719 40.679688 15.246094 C 40.460938 15.238281 40.351562 15.234375 40.128906 15.226562 C 39.796875 15.078125 39.625 15 39.277344 14.835938 C 39.277344 14.835938 39.246094 14.828125 39.207031 14.828125 C 39.117188 14.828125 38.996094 14.859375 39.140625 15.046875 C 39.347656 15.320312 39.441406 15.421875 39.441406 15.421875 C 39.574219 15.375 39.640625 15.355469 39.769531 15.3125 C 39.914062 15.402344 39.984375 15.445312 40.125 15.527344 C 40.125 15.527344 39.503906 16.335938 38.84375 16.425781 C 38.515625 15.980469 38.183594 15.535156 37.847656 15.089844 C 37.847656 15.089844 37.769531 15.042969 37.707031 15.042969 C 37.667969 15.042969 37.640625 15.058594 37.632812 15.109375 C 37.59375 15.519531 38.363281 16.28125 38.761719 16.761719 C 39.007812 16.6875 39.128906 16.652344 39.371094 16.578125 C 39.066406 17.226562 38.574219 17.6875 38.035156 18.140625 C 38.015625 18.492188 38.003906 18.667969 37.96875 19.003906 C 37.75 19.203125 37.640625 19.300781 37.425781 19.5 C 37.378906 19.621094 37.355469 19.683594 37.3125 19.804688 C 37.179688 19.902344 37.113281 19.949219 36.984375 20.046875 C 36.941406 20.175781 36.917969 20.238281 36.871094 20.367188 C 36.871094 20.367188 36.371094 20.824219 36.3125 20.859375 C 36.25 20.894531 35.6875 21.042969 35.6875 21.042969 " fill-opacity="1" fill-rule="nonzero"/></g><path fill="#437221" d="M 38.167969 19.730469 C 38.214844 19.46875 38.234375 19.339844 38.269531 19.070312 C 38.269531 19.070312 38.75 18.773438 38.804688 18.695312 C 38.808594 18.691406 38.8125 18.6875 38.8125 18.6875 C 38.847656 18.6875 38.796875 19.097656 38.675781 19.242188 C 38.542969 19.402344 38.167969 19.730469 38.167969 19.730469 " fill-opacity="1" fill-rule="nonzero"/><path fill="#437221" d="M 55.382812 19.066406 C 55.21875 19.066406 55.109375 19.175781 55.109375 19.339844 L 55.109375 19.644531 L 57.394531 19.644531 L 57.394531 19.339844 C 57.394531 19.175781 57.28125 19.066406 57.117188 19.066406 L 57.089844 19.066406 L 57.089844 13.703125 L 57.117188 13.703125 C 57.28125 13.703125 57.394531 13.589844 57.394531 13.425781 L 57.394531 13.125 L 55.109375 13.125 L 55.109375 13.425781 C 55.109375 13.589844 55.21875 13.703125 55.382812 13.703125 L 55.410156 13.703125 Z M 55.382812 19.066406 " fill-opacity="1" fill-rule="nonzero"/><path fill="#437221" d="M 61.519531 19.066406 C 61.355469 19.066406 61.246094 19.175781 61.246094 19.339844 L 61.246094 19.644531 L 63.554688 19.644531 L 63.554688 19.339844 C 63.554688 19.175781 63.417969 19.066406 63.28125 19.066406 L 63.253906 19.066406 L 63.253906 13.703125 L 63.28125 13.703125 C 63.417969 13.703125 63.554688 13.589844 63.554688 13.425781 L 63.554688 13.125 L 61.273438 13.125 L 61.273438 13.425781 C 61.273438 13.589844 61.382812 13.703125 61.546875 13.703125 L 61.574219 13.703125 Z M 61.519531 19.066406 " fill-opacity="1" fill-rule="nonzero"/><path fill="#437221" d="M 52.332031 19.066406 C 52.191406 19.066406 52.054688 19.175781 52.054688 19.339844 L 52.054688 19.644531 L 54.367188 19.644531 L 54.367188 19.339844 C 54.367188 19.175781 54.257812 19.066406 54.089844 19.066406 L 54.0625 19.066406 L 54.0625 13.703125 L 54.089844 13.703125 C 54.257812 13.703125 54.367188 13.589844 54.367188 13.425781 L 54.367188 13.125 L 52.054688 13.125 L 52.054688 13.425781 C 52.054688 13.589844 52.191406 13.703125 52.332031 13.703125 L 52.359375 13.703125 Z M 52.332031 19.066406 " fill-opacity="1" fill-rule="nonzero"/><path fill="#437221" d="M 49.277344 19.066406 C 49.140625 19.066406 49 19.175781 49 19.339844 L 49 19.644531 L 51.3125 19.644531 L 51.3125 19.339844 C 51.3125 19.175781 51.203125 19.066406 51.039062 19.066406 L 51.011719 19.066406 L 51.011719 13.703125 L 51.039062 13.703125 C 51.203125 13.703125 51.3125 13.589844 51.3125 13.425781 L 51.3125 13.125 L 49 13.125 L 49 13.425781 C 49 13.589844 49.140625 13.703125 49.277344 13.703125 L 49.304688 13.703125 Z M 49.277344 19.066406 " fill-opacity="1" fill-rule="nonzero"/><path fill="#437221" d="M 58.464844 19.066406 C 58.328125 19.066406 58.191406 19.175781 58.191406 19.339844 L 58.191406 19.644531 L 60.5 19.644531 L 60.5 19.339844 C 60.5 19.175781 60.363281 19.066406 60.226562 19.066406 L 60.199219 19.066406 L 60.199219 13.703125 L 60.226562 13.703125 C 60.363281 13.703125 60.5 13.589844 60.5 13.425781 L 60.5 13.125 L 58.191406 13.125 L 58.191406 13.425781 C 58.191406 13.589844 58.328125 13.703125 58.464844 13.703125 L 58.492188 13.703125 Z M 58.464844 19.066406 " fill-opacity="1" fill-rule="nonzero"/><g clip-path="url(#50db82821b)"><path fill="#437221" d="M 64.792969 21.652344 L 47.734375 21.652344 C 47.597656 21.652344 47.460938 21.789062 47.460938 21.925781 L 47.460938 22.945312 C 47.460938 23.109375 47.597656 23.21875 47.734375 23.21875 L 64.792969 23.21875 C 64.957031 23.21875 65.066406 23.109375 65.066406 22.945312 L 65.066406 21.925781 C 65.066406 21.789062 64.957031 21.652344 64.792969 21.652344 Z M 64.792969 21.652344 " fill-opacity="1" fill-rule="nonzero"/></g><g clip-path="url(#61fea8fdaf)"><path fill="#437221" d="M 48.148438 20.46875 L 48.148438 21.101562 L 64.378906 21.101562 L 64.378906 20.46875 C 64.378906 20.304688 64.242188 20.195312 64.105469 20.195312 L 48.425781 20.195312 C 48.285156 20.195312 48.148438 20.332031 48.148438 20.46875 Z M 48.148438 20.46875 " fill-opacity="1" fill-rule="nonzero"/></g><path fill="#437221" d="M 55 9.851562 L 54.667969 10.621094 L 55.355469 10.621094 Z M 55 9.851562 " fill-opacity="1" fill-rule="nonzero"/><path fill="#437221" d="M 53.570312 10.785156 C 53.570312 10.621094 53.429688 10.539062 53.15625 10.539062 L 52.6875 10.539062 L 52.6875 11.058594 L 53.183594 11.058594 C 53.292969 11.058594 53.402344 11.03125 53.457031 11.003906 C 53.511719 10.949219 53.570312 10.894531 53.570312 10.785156 Z M 53.570312 10.785156 " fill-opacity="1" fill-rule="nonzero"/><g clip-path="url(#eb46248477)"><path fill="#437221" d="M 47.734375 12.574219 L 64.792969 12.574219 C 64.957031 12.574219 65.066406 12.464844 65.066406 12.296875 L 65.066406 11.085938 C 65.066406 11.003906 65.011719 10.894531 64.929688 10.867188 L 56.402344 5.640625 C 56.320312 5.585938 56.210938 5.585938 56.128906 5.640625 L 47.597656 10.839844 C 47.515625 10.894531 47.460938 10.976562 47.460938 11.058594 L 47.460938 12.269531 C 47.460938 12.4375 47.597656 12.574219 47.734375 12.574219 Z M 58.546875 9.4375 L 58.878906 9.4375 L 58.878906 10.371094 L 59.757812 9.4375 L 60.171875 9.4375 L 59.402344 10.261719 L 60.171875 11.335938 L 59.785156 11.335938 L 59.152344 10.511719 L 58.878906 10.8125 L 58.878906 11.335938 L 58.546875 11.335938 Z M 56.292969 9.4375 L 56.621094 9.4375 L 57.722656 10.867188 L 57.722656 9.4375 L 58.054688 9.4375 L 58.054688 11.335938 L 57.695312 11.335938 L 56.621094 9.960938 L 56.621094 11.335938 L 56.292969 11.335938 Z M 54.835938 9.4375 L 55.164062 9.4375 L 55.988281 11.335938 L 55.660156 11.335938 L 55.46875 10.894531 L 54.503906 10.894531 L 54.3125 11.335938 L 53.980469 11.335938 Z M 52.359375 9.4375 L 53.101562 9.4375 C 53.238281 9.4375 53.347656 9.464844 53.429688 9.492188 C 53.511719 9.519531 53.597656 9.574219 53.652344 9.628906 C 53.734375 9.738281 53.789062 9.851562 53.789062 9.960938 C 53.789062 10.097656 53.734375 10.207031 53.652344 10.289062 C 53.625 10.316406 53.597656 10.316406 53.570312 10.34375 C 53.542969 10.371094 53.542969 10.371094 53.511719 10.371094 C 53.625 10.398438 53.734375 10.457031 53.789062 10.539062 C 53.871094 10.621094 53.898438 10.730469 53.898438 10.839844 C 53.898438 10.976562 53.84375 11.085938 53.761719 11.199219 C 53.652344 11.308594 53.457031 11.363281 53.210938 11.363281 L 52.386719 11.363281 L 52.386719 9.4375 Z M 52.359375 9.4375 " fill-opacity="1" fill-rule="nonzero"/></g><path fill="#437221" d="M 53.429688 9.988281 C 53.429688 9.90625 53.402344 9.824219 53.347656 9.792969 C 53.292969 9.765625 53.210938 9.738281 53.101562 9.738281 L 52.6875 9.738281 L 52.6875 10.234375 L 53.101562 10.234375 C 53.320312 10.234375 53.429688 10.152344 53.429688 9.988281 Z M 53.429688 9.988281 " fill-opacity="1" fill-rule="nonzero"/><g clip-path="url(#2cad8fad16)"><path fill="#2b9196" d="M 83.890625 12.820312 L 82.980469 12.820312 L 82.980469 10.609375 C 82.984375 7.839844 80.730469 5.585938 77.960938 5.585938 C 75.191406 5.585938 72.9375 7.839844 72.9375 10.609375 L 72.9375 12.820312 L 72.03125 12.820312 C 71.667969 12.820312 71.378906 13.113281 71.378906 13.476562 L 71.378906 22.785156 C 71.378906 23.144531 71.667969 23.4375 72.03125 23.4375 L 83.894531 23.4375 C 84.253906 23.4375 84.546875 23.144531 84.546875 22.78125 L 84.546875 13.476562 C 84.542969 13.113281 84.25 12.820312 83.890625 12.820312 Z M 74.242188 10.609375 C 74.242188 8.558594 75.910156 6.890625 77.960938 6.890625 C 80.007812 6.890625 81.675781 8.558594 81.675781 10.609375 L 81.675781 12.820312 L 74.242188 12.820312 Z M 78.613281 18.597656 L 78.613281 20.316406 C 78.613281 20.675781 78.320312 20.96875 77.960938 20.96875 C 77.601562 20.96875 77.308594 20.675781 77.308594 20.316406 L 77.308594 18.597656 C 76.855469 18.363281 76.550781 17.890625 76.550781 17.351562 C 76.550781 16.574219 77.183594 15.945312 77.957031 15.945312 C 78.734375 15.945312 79.363281 16.578125 79.363281 17.351562 C 79.371094 17.890625 79.0625 18.363281 78.613281 18.597656 Z M 78.613281 18.597656 " fill-opacity="1" fill-rule="nonzero"/></g></svg>