<svg xmlns="http://www.w3.org/2000/svg" xmlns:xlink="http://www.w3.org/1999/xlink" width="150" zoomAndPan="magnify" viewBox="0 0 112.5 30.000001" height="40" preserveAspectRatio="xMidYMid meet" version="1.0"><defs><clipPath id="d3b455117c"><path d="M 1.574219 0 L 110.445312 0 L 110.445312 29.03125 L 1.574219 29.03125 Z M 1.574219 0 " clip-rule="nonzero"/></clipPath><clipPath id="ef2f81bc6f"><path d="M 9.957031 21 L 27.378906 21 L 27.378906 23.117188 L 9.957031 23.117188 Z M 9.957031 21 " clip-rule="nonzero"/></clipPath><clipPath id="49049cc124"><path d="M 9.957031 5.699219 L 27.378906 5.699219 L 27.378906 13 L 9.957031 13 Z M 9.957031 5.699219 " clip-rule="nonzero"/></clipPath><clipPath id="35d1845b74"><path d="M 55 15 L 60.546875 15 L 60.546875 23 L 55 23 Z M 55 15 " clip-rule="nonzero"/></clipPath><clipPath id="0642f70628"><path d="M 57.355469 22.375 L 59.878906 22.375 L 59.878906 23.46875 L 57.355469 23.46875 Z M 57.355469 22.375 " clip-rule="nonzero"/></clipPath><clipPath id="7f098d7628"><path d="M 47 5 L 59 5 L 59 23.789062 L 47 23.789062 Z M 47 5 " clip-rule="nonzero"/></clipPath><clipPath id="c7ddbf5c5a"><path d="M 49 4.917969 L 51 4.917969 L 51 6 L 49 6 Z M 49 4.917969 " clip-rule="nonzero"/></clipPath><clipPath id="f1c25c80b1"><path d="M 40.226562 13 L 47 13 L 47 17 L 40.226562 17 Z M 40.226562 13 " clip-rule="nonzero"/></clipPath><clipPath id="2fda05cfd7"><path d="M 89 6 L 94.132812 6 L 94.132812 11 L 89 11 Z M 89 6 " clip-rule="nonzero"/></clipPath><clipPath id="0716df8cbb"><path d="M 29.738281 10.34375 L 38.445312 10.34375 L 38.445312 19 L 29.738281 19 Z M 29.738281 10.34375 " clip-rule="nonzero"/></clipPath><clipPath id="43b82a0f8c"><path d="M 67.527344 12.445312 L 77.691406 12.445312 L 77.691406 15 L 67.527344 15 Z M 67.527344 12.445312 " clip-rule="nonzero"/></clipPath><clipPath id="d712fe8429"><path d="M 67.527344 16 L 77.691406 16 L 77.691406 18.976562 L 67.527344 18.976562 Z M 67.527344 16 " clip-rule="nonzero"/></clipPath></defs><g clip-path="url(#d3b455117c)"><path fill="#ffffff" d="M 1.574219 0 L 110.445312 0 L 110.445312 29.03125 L 1.574219 29.03125 Z M 1.574219 0 " fill-opacity="1" fill-rule="nonzero"/><path fill="#ffffff" d="M 1.574219 0 L 110.445312 0 L 110.445312 29.03125 L 1.574219 29.03125 Z M 1.574219 0 " fill-opacity="1" fill-rule="nonzero"/></g><path fill="#437221" d="M 17.894531 19.179688 C 17.730469 19.179688 17.621094 19.289062 17.621094 19.453125 L 17.621094 19.757812 L 19.90625 19.757812 L 19.90625 19.453125 C 19.90625 19.289062 19.792969 19.179688 19.628906 19.179688 L 19.601562 19.179688 L 19.601562 13.8125 L 19.628906 13.8125 C 19.792969 13.8125 19.90625 13.703125 19.90625 13.539062 L 19.90625 13.234375 L 17.621094 13.234375 L 17.621094 13.539062 C 17.621094 13.703125 17.730469 13.8125 17.894531 13.8125 L 17.921875 13.8125 Z M 17.894531 19.179688 " fill-opacity="1" fill-rule="nonzero"/><path fill="#437221" d="M 24.03125 19.179688 C 23.867188 19.179688 23.757812 19.289062 23.757812 19.453125 L 23.757812 19.757812 L 26.066406 19.757812 L 26.066406 19.453125 C 26.066406 19.289062 25.929688 19.179688 25.792969 19.179688 L 25.765625 19.179688 L 25.765625 13.8125 L 25.792969 13.8125 C 25.929688 13.8125 26.066406 13.703125 26.066406 13.539062 L 26.066406 13.234375 L 23.785156 13.234375 L 23.785156 13.539062 C 23.785156 13.703125 23.894531 13.8125 24.058594 13.8125 L 24.085938 13.8125 Z M 24.03125 19.179688 " fill-opacity="1" fill-rule="nonzero"/><path fill="#437221" d="M 14.84375 19.179688 C 14.703125 19.179688 14.566406 19.289062 14.566406 19.453125 L 14.566406 19.757812 L 16.878906 19.757812 L 16.878906 19.453125 C 16.878906 19.289062 16.769531 19.179688 16.601562 19.179688 L 16.574219 19.179688 L 16.574219 13.8125 L 16.601562 13.8125 C 16.769531 13.8125 16.878906 13.703125 16.878906 13.539062 L 16.878906 13.234375 L 14.566406 13.234375 L 14.566406 13.539062 C 14.566406 13.703125 14.703125 13.8125 14.84375 13.8125 L 14.871094 13.8125 Z M 14.84375 19.179688 " fill-opacity="1" fill-rule="nonzero"/><path fill="#437221" d="M 11.789062 19.179688 C 11.652344 19.179688 11.511719 19.289062 11.511719 19.453125 L 11.511719 19.757812 L 13.824219 19.757812 L 13.824219 19.453125 C 13.824219 19.289062 13.714844 19.179688 13.550781 19.179688 L 13.523438 19.179688 L 13.523438 13.8125 L 13.550781 13.8125 C 13.714844 13.8125 13.824219 13.703125 13.824219 13.539062 L 13.824219 13.234375 L 11.511719 13.234375 L 11.511719 13.539062 C 11.511719 13.703125 11.652344 13.8125 11.789062 13.8125 L 11.816406 13.8125 Z M 11.789062 19.179688 " fill-opacity="1" fill-rule="nonzero"/><path fill="#437221" d="M 20.976562 19.179688 C 20.839844 19.179688 20.703125 19.289062 20.703125 19.453125 L 20.703125 19.757812 L 23.011719 19.757812 L 23.011719 19.453125 C 23.011719 19.289062 22.875 19.179688 22.738281 19.179688 L 22.710938 19.179688 L 22.710938 13.8125 L 22.738281 13.8125 C 22.875 13.8125 23.011719 13.703125 23.011719 13.539062 L 23.011719 13.234375 L 20.703125 13.234375 L 20.703125 13.539062 C 20.703125 13.703125 20.839844 13.8125 20.976562 13.8125 L 21.003906 13.8125 Z M 20.976562 19.179688 " fill-opacity="1" fill-rule="nonzero"/><g clip-path="url(#ef2f81bc6f)"><path fill="#437221" d="M 27.304688 21.765625 L 10.246094 21.765625 C 10.109375 21.765625 9.972656 21.902344 9.972656 22.039062 L 9.972656 23.058594 C 9.972656 23.222656 10.109375 23.332031 10.246094 23.332031 L 27.304688 23.332031 C 27.46875 23.332031 27.578125 23.222656 27.578125 23.058594 L 27.578125 22.039062 C 27.578125 21.902344 27.46875 21.765625 27.304688 21.765625 Z M 27.304688 21.765625 " fill-opacity="1" fill-rule="nonzero"/></g><path fill="#437221" d="M 10.660156 20.582031 L 10.660156 21.214844 L 26.890625 21.214844 L 26.890625 20.582031 C 26.890625 20.417969 26.753906 20.304688 26.617188 20.304688 L 10.9375 20.304688 C 10.796875 20.304688 10.660156 20.445312 10.660156 20.582031 Z M 10.660156 20.582031 " fill-opacity="1" fill-rule="nonzero"/><path fill="#437221" d="M 17.511719 9.960938 L 17.179688 10.730469 L 17.867188 10.730469 Z M 17.511719 9.960938 " fill-opacity="1" fill-rule="nonzero"/><path fill="#437221" d="M 16.082031 10.898438 C 16.082031 10.730469 15.941406 10.648438 15.667969 10.648438 L 15.199219 10.648438 L 15.199219 11.171875 L 15.695312 11.171875 C 15.804688 11.171875 15.914062 11.144531 15.96875 11.117188 C 16.023438 11.0625 16.082031 11.007812 16.082031 10.898438 Z M 16.082031 10.898438 " fill-opacity="1" fill-rule="nonzero"/><g clip-path="url(#49049cc124)"><path fill="#437221" d="M 10.246094 12.6875 L 27.304688 12.6875 C 27.46875 12.6875 27.578125 12.574219 27.578125 12.410156 L 27.578125 11.199219 C 27.578125 11.117188 27.523438 11.007812 27.441406 10.980469 L 18.914062 5.753906 C 18.832031 5.699219 18.722656 5.699219 18.640625 5.753906 L 10.109375 10.953125 C 10.027344 11.007812 9.972656 11.089844 9.972656 11.171875 L 9.972656 12.382812 C 9.972656 12.546875 10.109375 12.6875 10.246094 12.6875 Z M 21.058594 9.550781 L 21.390625 9.550781 L 21.390625 10.484375 L 22.269531 9.550781 L 22.683594 9.550781 L 21.914062 10.375 L 22.683594 11.449219 L 22.296875 11.449219 L 21.664062 10.621094 L 21.390625 10.925781 L 21.390625 11.449219 L 21.058594 11.449219 Z M 18.804688 9.550781 L 19.132812 9.550781 L 20.234375 10.980469 L 20.234375 9.550781 L 20.566406 9.550781 L 20.566406 11.449219 L 20.207031 11.449219 L 19.132812 10.070312 L 19.132812 11.449219 L 18.804688 11.449219 Z M 17.347656 9.550781 L 17.675781 9.550781 L 18.5 11.449219 L 18.171875 11.449219 L 17.980469 11.007812 L 17.015625 11.007812 L 16.824219 11.449219 L 16.492188 11.449219 Z M 14.871094 9.550781 L 15.613281 9.550781 C 15.75 9.550781 15.859375 9.578125 15.941406 9.605469 C 16.023438 9.632812 16.109375 9.6875 16.164062 9.742188 C 16.246094 9.851562 16.300781 9.960938 16.300781 10.070312 C 16.300781 10.210938 16.246094 10.320312 16.164062 10.402344 C 16.136719 10.429688 16.109375 10.429688 16.082031 10.457031 C 16.054688 10.484375 16.054688 10.484375 16.023438 10.484375 C 16.136719 10.511719 16.246094 10.566406 16.300781 10.648438 C 16.382812 10.730469 16.410156 10.84375 16.410156 10.953125 C 16.410156 11.089844 16.355469 11.199219 16.273438 11.308594 C 16.164062 11.421875 15.96875 11.476562 15.722656 11.476562 L 14.898438 11.476562 L 14.898438 9.550781 Z M 14.871094 9.550781 " fill-opacity="1" fill-rule="nonzero"/></g><path fill="#437221" d="M 15.941406 10.097656 C 15.941406 10.015625 15.914062 9.933594 15.859375 9.90625 C 15.804688 9.878906 15.722656 9.851562 15.613281 9.851562 L 15.199219 9.851562 L 15.199219 10.347656 L 15.613281 10.347656 C 15.832031 10.347656 15.941406 10.265625 15.941406 10.097656 Z M 15.941406 10.097656 " fill-opacity="1" fill-rule="nonzero"/><path fill="#db9374" d="M 52.59375 20.714844 C 52.5625 20.609375 52.558594 20.511719 52.476562 20.433594 C 52.371094 20.339844 52.105469 20.347656 51.964844 20.382812 C 51.929688 20.390625 51.734375 20.382812 51.683594 20.917969 C 51.644531 21.179688 51.597656 21.5625 51.597656 21.859375 C 51.597656 21.902344 51.617188 21.9375 51.703125 22.105469 C 51.800781 22.308594 52.003906 22.421875 52.054688 22.4375 C 52.179688 22.46875 52.335938 22.460938 52.46875 22.457031 C 52.550781 22.457031 52.476562 22.203125 52.457031 22.089844 C 52.402344 21.78125 52.421875 21.476562 52.484375 21.171875 C 52.523438 20.976562 52.597656 20.738281 52.59375 20.714844 " fill-opacity="1" fill-rule="nonzero"/><path fill="#3b1e1d" d="M 52.679688 20.710938 C 52.582031 20.648438 52.492188 20.558594 52.371094 20.539062 C 52.152344 20.535156 52.058594 20.652344 51.992188 20.785156 C 51.9375 20.90625 51.976562 21.058594 51.992188 21.191406 C 52 21.226562 52.011719 21.257812 52.03125 21.285156 C 52.066406 21.328125 52.105469 21.375 52.109375 21.382812 C 52.140625 21.441406 52.179688 21.488281 52.234375 21.53125 C 52.277344 21.566406 52.359375 21.558594 52.367188 21.484375 C 52.398438 21.265625 52.523438 21.074219 52.675781 20.910156 C 52.695312 20.886719 52.699219 20.863281 52.695312 20.839844 C 52.726562 20.804688 52.730469 20.746094 52.679688 20.710938 " fill-opacity="1" fill-rule="nonzero"/><path fill="#e0c9c5" d="M 53.367188 21.667969 C 53.34375 21.421875 53.378906 21.160156 53.308594 20.914062 C 53.277344 20.792969 53.21875 20.679688 53.117188 20.601562 C 53.003906 20.511719 52.820312 20.527344 52.6875 20.5625 C 52.558594 20.597656 52.433594 20.707031 52.34375 20.800781 C 52.246094 20.902344 52.171875 21.027344 52.113281 21.152344 C 52.007812 21.363281 51.917969 21.710938 51.941406 21.816406 C 51.964844 21.914062 52.015625 22.007812 52.074219 22.089844 C 52.199219 22.261719 52.363281 22.402344 52.519531 22.546875 C 52.714844 22.726562 53.078125 22.945312 53.355469 22.945312 C 53.414062 22.945312 53.398438 21.996094 53.367188 21.667969 " fill-opacity="1" fill-rule="nonzero"/><path fill="#3b1e1d" d="M 58.667969 21.746094 C 58.445312 21.761719 58.226562 21.785156 58.003906 21.820312 C 57.964844 21.804688 57.910156 21.816406 57.894531 21.871094 C 57.828125 22.085938 57.664062 22.53125 57.664062 22.539062 C 57.632812 22.582031 57.710938 22.949219 57.785156 22.957031 C 57.984375 22.96875 58.445312 22.667969 58.457031 22.621094 C 58.519531 22.375 58.765625 21.742188 58.667969 21.746094 " fill-opacity="1" fill-rule="nonzero"/><g clip-path="url(#35d1845b74)"><path fill="#e0c9c5" d="M 60.375 17.691406 C 59.867188 16.574219 57.238281 16.449219 57.199219 16.382812 C 57.136719 16.269531 57.0625 16.160156 56.980469 16.058594 C 56.972656 16.015625 56.964844 15.976562 56.953125 15.9375 C 57 15.90625 57.003906 15.816406 56.933594 15.789062 C 56.699219 15.695312 56.433594 15.90625 56.246094 16.027344 C 56.003906 16.1875 55.777344 16.375 55.578125 16.589844 C 55.5 16.675781 55.40625 16.769531 55.363281 16.882812 C 55.316406 17.015625 55.339844 17.167969 55.34375 17.304688 C 55.359375 17.65625 55.859375 18.660156 56.074219 18.710938 C 57.132812 18.953125 57.722656 18.847656 57.917969 18.820312 C 57.949219 18.816406 57.972656 18.847656 57.964844 18.878906 C 57.824219 19.328125 57.144531 21.140625 57.3125 22.054688 C 57.324219 22.113281 58.691406 22.125 58.726562 22.070312 C 59.464844 20.878906 60.007812 19.773438 60.230469 19.246094 C 60.394531 18.847656 60.546875 18.070312 60.375 17.691406 " fill-opacity="1" fill-rule="nonzero"/></g><path fill="#e0c9c5" d="M 57.0625 17.445312 C 57.128906 16.773438 56.488281 16.316406 55.917969 16.105469 C 55.601562 15.984375 55.253906 15.929688 54.914062 15.945312 C 54.519531 15.964844 54.199219 16.164062 53.808594 16.046875 C 53.71875 16.019531 53.816406 15.765625 53.75 15.871094 C 53.640625 16.175781 53.550781 16.644531 53.496094 17.121094 C 53.472656 17.320312 53.210938 18.292969 53.148438 18.546875 C 52.859375 19.644531 52.707031 20.808594 52.855469 21.945312 C 52.890625 22.203125 52.800781 22.78125 53.082031 22.90625 C 53.101562 22.914062 53.121094 22.917969 53.140625 22.917969 C 53.617188 22.984375 54.113281 22.980469 54.5625 22.609375 C 55.363281 21.945312 55.6875 18.835938 56.109375 18.484375 C 56.324219 18.308594 56.835938 17.714844 57.050781 17.539062 C 57.085938 17.511719 57.082031 17.472656 57.0625 17.445312 " fill-opacity="1" fill-rule="nonzero"/><path fill="#3b1e1d" d="M 55.980469 16.175781 C 55.96875 16.378906 55.972656 16.589844 55.941406 16.792969 C 55.910156 16.980469 55.832031 17.164062 55.660156 17.257812 C 55.679688 16.925781 55.703125 16.59375 55.722656 16.261719 C 55.726562 16.238281 55.6875 16.238281 55.683594 16.261719 C 55.652344 16.714844 55.625 17.171875 55.59375 17.625 C 55.59375 17.648438 55.632812 17.648438 55.632812 17.625 C 55.640625 17.515625 55.648438 17.410156 55.65625 17.300781 C 55.660156 17.300781 55.660156 17.300781 55.664062 17.296875 C 56.058594 17.105469 56 16.539062 56.023438 16.175781 C 56.023438 16.152344 55.984375 16.152344 55.980469 16.175781 " fill-opacity="1" fill-rule="nonzero"/><path fill="#244230" d="M 59.125 12.226562 C 58.847656 11.617188 58.035156 11.761719 57.472656 11.859375 C 57.460938 11.863281 57.449219 11.867188 57.441406 11.871094 C 57.234375 11.835938 57.007812 11.808594 56.828125 11.714844 C 56.828125 11.6875 56.820312 11.664062 56.792969 11.640625 C 56.421875 11.320312 55.765625 10.984375 55.238281 11.023438 C 54.730469 11.0625 54.449219 11.4375 54.070312 11.746094 C 54.015625 11.789062 53.601562 12.273438 53.542969 12.605469 C 53.46875 13.019531 53.3125 14.707031 53.445312 15.386719 C 53.5 15.660156 53.246094 16.101562 53.429688 16.347656 C 53.632812 16.613281 55.136719 16.667969 55.488281 16.582031 C 55.9375 16.464844 56.617188 16.289062 57.078125 16.246094 C 57.496094 16.207031 57.488281 15.769531 57.644531 15.433594 C 57.738281 15.242188 57.941406 15.023438 58.289062 14.21875 C 58.347656 14.078125 59.039062 13.878906 59.0625 13.753906 C 59.261719 12.660156 59.292969 12.585938 59.125 12.226562 " fill-opacity="1" fill-rule="nonzero"/><path fill="#d67d5a" d="M 57.683594 11.203125 C 57.679688 11.15625 57.648438 11.117188 57.585938 11.121094 C 57.3125 11.152344 57.035156 11.171875 56.757812 11.183594 C 56.742188 11.183594 56.726562 11.1875 56.710938 11.195312 C 56.691406 11.199219 56.667969 11.214844 56.65625 11.246094 C 56.589844 11.398438 56.515625 11.550781 56.4375 11.695312 C 56.441406 11.703125 56.441406 11.707031 56.441406 11.714844 C 56.449219 11.929688 56.488281 12.207031 56.730469 12.269531 C 56.910156 12.316406 57.070312 12.261719 57.242188 12.222656 C 57.433594 11.929688 57.582031 11.613281 57.691406 11.28125 C 57.703125 11.25 57.695312 11.222656 57.683594 11.203125 " fill-opacity="1" fill-rule="nonzero"/><path fill="#fabb87" d="M 56.46875 10.753906 C 56.46875 10.753906 56.46875 10.75 56.46875 10.75 C 56.445312 10.710938 56.414062 10.667969 56.367188 10.65625 C 56.300781 10.640625 56.277344 10.695312 56.265625 10.734375 C 56.222656 10.875 56.277344 11.101562 56.441406 11.1875 C 56.46875 11.203125 56.5 11.1875 56.507812 11.167969 C 56.574219 11.042969 56.527344 10.878906 56.46875 10.753906 " fill-opacity="1" fill-rule="nonzero"/><path fill="#fabb87" d="M 57.988281 10.300781 C 57.898438 10.15625 57.78125 9.960938 57.617188 9.875 C 57.425781 9.769531 57.179688 9.789062 56.980469 9.859375 C 56.949219 9.871094 56.929688 9.890625 56.921875 9.914062 C 56.601562 10.070312 56.417969 10.496094 56.398438 10.816406 C 56.382812 11.015625 56.453125 11.28125 56.515625 11.472656 C 56.5625 11.617188 56.597656 11.730469 56.730469 11.816406 C 56.8125 11.867188 57.023438 11.925781 57.121094 11.90625 C 57.320312 11.871094 57.433594 11.78125 57.554688 11.625 C 57.695312 11.441406 57.769531 11.21875 57.84375 11.007812 C 58.019531 10.800781 58.148438 10.570312 57.988281 10.300781 " fill-opacity="1" fill-rule="nonzero"/><path fill="#f2e0dd" d="M 57.484375 11.804688 C 57.476562 11.796875 57.136719 12.117188 56.953125 12.1875 C 56.796875 12.246094 56.695312 12.078125 56.640625 11.949219 C 56.582031 11.816406 56.566406 11.667969 56.523438 11.53125 C 56.515625 11.519531 56.5 11.511719 56.484375 11.519531 C 56.34375 11.601562 56.230469 11.777344 56.160156 11.917969 C 56.128906 11.984375 56.179688 12.472656 56.390625 12.675781 C 56.414062 12.699219 56.449219 12.699219 56.472656 12.675781 C 56.558594 12.597656 56.699219 12.511719 56.835938 12.328125 C 56.847656 12.3125 56.871094 12.320312 56.871094 12.339844 C 56.875 12.429688 56.878906 12.515625 56.886719 12.601562 C 56.890625 12.652344 56.882812 12.816406 56.9375 12.835938 C 56.976562 12.847656 57.070312 12.773438 57.097656 12.753906 C 57.160156 12.714844 57.214844 12.667969 57.265625 12.617188 C 57.332031 12.542969 57.390625 12.460938 57.4375 12.375 C 57.46875 12.3125 57.519531 12.222656 57.523438 12.148438 C 57.527344 12.035156 57.527344 11.804688 57.484375 11.804688 " fill-opacity="1" fill-rule="nonzero"/><path fill="#3b1e1d" d="M 58.492188 18.34375 C 58.328125 18.484375 58.175781 18.636719 58.039062 18.800781 C 58.023438 18.820312 58.050781 18.847656 58.066406 18.828125 C 58.207031 18.664062 58.355469 18.511719 58.523438 18.375 C 58.542969 18.355469 58.511719 18.328125 58.492188 18.34375 " fill-opacity="1" fill-rule="nonzero"/><path fill="#3b1e1d" d="M 52.757812 20.644531 C 52.757812 20.617188 52.71875 20.617188 52.71875 20.644531 C 52.71875 21.074219 52.757812 21.507812 52.839844 21.933594 C 52.84375 21.957031 52.882812 21.949219 52.878906 21.921875 C 52.796875 21.5 52.757812 21.074219 52.757812 20.644531 " fill-opacity="1" fill-rule="nonzero"/><g clip-path="url(#0642f70628)"><path fill="#db9374" d="M 59.875 23.246094 C 59.871094 23.21875 59.808594 23.058594 59.75 23.011719 C 59.636719 22.917969 59.460938 22.914062 59.324219 22.871094 C 59.082031 22.796875 58.941406 22.730469 58.753906 22.558594 C 58.699219 22.507812 58.636719 22.453125 58.558594 22.445312 C 58.394531 22.433594 58.25 22.578125 58.125 22.660156 C 58.046875 22.707031 57.9375 22.714844 57.851562 22.691406 C 57.796875 22.679688 57.738281 22.648438 57.722656 22.589844 C 57.714844 22.550781 57.742188 22.359375 57.671875 22.382812 C 57.554688 22.414062 57.507812 22.566406 57.464844 22.671875 C 57.410156 22.8125 57.390625 22.953125 57.375 23.101562 C 57.375 23.101562 57.363281 23.171875 57.363281 23.195312 C 57.363281 23.25 57.367188 23.304688 57.367188 23.359375 C 57.367188 23.390625 57.722656 23.464844 58.03125 23.414062 C 58.292969 23.371094 58.53125 23.363281 58.796875 23.402344 C 59.15625 23.460938 59.507812 23.523438 59.855469 23.375 C 59.886719 23.363281 59.875 23.273438 59.875 23.246094 " fill-opacity="1" fill-rule="nonzero"/></g><path fill="#b87d53" d="M 56.9375 9.742188 C 56.9375 9.71875 56.925781 9.707031 56.910156 9.703125 C 56.902344 9.691406 56.917969 9.628906 56.898438 9.632812 C 56.671875 9.71875 56.429688 9.828125 56.285156 10.03125 C 56.128906 10.257812 56.261719 10.660156 56.375 10.824219 C 56.414062 10.878906 56.398438 10.632812 56.511719 10.457031 C 56.585938 10.335938 56.625 10.265625 56.753906 10.386719 C 56.851562 10.476562 56.941406 9.859375 56.9375 9.742188 " fill-opacity="1" fill-rule="nonzero"/><path fill="#3b1e1d" d="M 59.160156 22.847656 C 59.074219 22.894531 59.015625 22.945312 58.917969 22.886719 C 58.851562 22.851562 58.789062 22.808594 58.726562 22.769531 C 58.605469 22.695312 58.484375 22.625 58.351562 22.578125 C 58.328125 22.570312 58.316406 22.605469 58.339844 22.617188 C 58.519531 22.679688 58.675781 22.789062 58.839844 22.886719 C 58.882812 22.914062 58.949219 22.972656 59.007812 22.96875 C 59.066406 22.964844 59.128906 22.910156 59.179688 22.882812 C 59.203125 22.867188 59.179688 22.835938 59.160156 22.847656 " fill-opacity="1" fill-rule="nonzero"/><path fill="#b87d53" d="M 57.960938 9.148438 C 57.957031 9.066406 57.925781 8.972656 57.855469 8.949219 C 57.792969 8.925781 57.738281 8.96875 57.6875 9.011719 C 57.613281 9.074219 57.539062 9.023438 57.460938 9.070312 C 57.390625 9.109375 57.351562 9.191406 57.339844 9.273438 C 57.328125 9.355469 57.34375 9.449219 57.386719 9.511719 C 57.421875 9.558594 57.464844 9.570312 57.507812 9.570312 C 57.511719 9.597656 57.53125 9.617188 57.558594 9.605469 C 57.5625 9.605469 57.566406 9.601562 57.570312 9.601562 C 57.578125 9.625 57.605469 9.644531 57.632812 9.628906 C 57.796875 9.535156 57.964844 9.375 57.960938 9.148438 " fill-opacity="1" fill-rule="nonzero"/><path fill="#b87d53" d="M 57.929688 9.722656 C 57.902344 9.691406 57.890625 9.6875 57.851562 9.699219 C 57.832031 9.707031 57.820312 9.71875 57.804688 9.730469 C 57.609375 9.910156 57.445312 10.121094 57.3125 10.347656 C 57.292969 10.378906 57.296875 10.410156 57.316406 10.433594 C 57.304688 10.476562 57.34375 10.519531 57.402344 10.511719 C 57.929688 10.460938 57.726562 10.839844 57.777344 11.085938 C 57.789062 11.136719 57.828125 11.144531 57.871094 11.121094 C 58.0625 11.023438 58.25 10.734375 58.285156 10.53125 C 58.332031 10.238281 58.101562 9.917969 57.929688 9.722656 " fill-opacity="1" fill-rule="nonzero"/><path fill="#b87d53" d="M 57.613281 9.480469 C 57.570312 9.464844 57.527344 9.457031 57.484375 9.453125 C 57.289062 9.433594 57.085938 9.515625 56.917969 9.601562 C 56.738281 9.695312 56.636719 9.828125 56.597656 10.035156 C 56.570312 10.183594 56.65625 10.316406 56.761719 10.410156 C 56.898438 10.527344 57.046875 10.535156 57.226562 10.53125 C 57.375 10.53125 57.550781 10.484375 57.683594 10.425781 C 57.804688 10.371094 57.894531 10.324219 57.972656 10.214844 C 58.082031 10.0625 58.035156 9.859375 57.929688 9.722656 C 57.851562 9.621094 57.738281 9.527344 57.613281 9.480469 " fill-opacity="1" fill-rule="nonzero"/><path fill="#fabb87" d="M 57.980469 11 C 57.933594 10.925781 57.824219 11.023438 57.785156 11.058594 C 57.707031 11.132812 57.660156 11.230469 57.632812 11.332031 C 57.617188 11.386719 57.617188 11.476562 57.714844 11.46875 C 57.8125 11.460938 57.886719 11.316406 57.933594 11.253906 C 57.988281 11.175781 58.039062 11.089844 57.980469 11 " fill-opacity="1" fill-rule="nonzero"/><path fill="#211411" d="M 57.4375 10.957031 C 57.394531 10.910156 57.347656 10.949219 57.328125 10.984375 C 57.3125 11.019531 57.308594 11.078125 57.320312 11.113281 C 57.332031 11.15625 57.375 11.183594 57.410156 11.148438 C 57.417969 11.144531 57.425781 11.136719 57.429688 11.128906 C 57.460938 11.078125 57.476562 11.003906 57.4375 10.957031 " fill-opacity="1" fill-rule="nonzero"/><path fill="#211411" d="M 56.765625 10.878906 C 56.726562 10.832031 56.679688 10.871094 56.660156 10.90625 C 56.640625 10.941406 56.640625 11 56.652344 11.035156 C 56.664062 11.078125 56.707031 11.105469 56.742188 11.070312 C 56.75 11.066406 56.753906 11.058594 56.757812 11.050781 C 56.792969 11 56.808594 10.925781 56.765625 10.878906 " fill-opacity="1" fill-rule="nonzero"/><path fill="#d67d5a" d="M 56.964844 11.28125 C 56.929688 11.25 56.890625 11.214844 56.90625 11.164062 C 56.914062 11.128906 56.945312 11.089844 56.96875 11.066406 C 56.988281 11.046875 56.964844 11.015625 56.945312 11.035156 C 56.910156 11.070312 56.863281 11.128906 56.859375 11.183594 C 56.859375 11.238281 56.902344 11.277344 56.941406 11.3125 C 56.960938 11.328125 56.984375 11.296875 56.964844 11.28125 " fill-opacity="1" fill-rule="nonzero"/><path fill="#d67d5a" d="M 57.144531 11.242188 C 57.109375 11.222656 57.066406 11.207031 57.03125 11.234375 C 57.011719 11.25 57.035156 11.28125 57.058594 11.265625 C 57.078125 11.246094 57.109375 11.265625 57.132812 11.277344 C 57.152344 11.289062 57.167969 11.253906 57.144531 11.242188 " fill-opacity="1" fill-rule="nonzero"/><path fill="#ffffff" d="M 56.945312 11.375 C 56.917969 11.375 56.882812 11.375 56.867188 11.402344 C 56.847656 11.4375 56.882812 11.46875 56.910156 11.480469 C 56.929688 11.488281 57.097656 11.542969 57.089844 11.496094 C 57.078125 11.410156 57.019531 11.378906 56.945312 11.375 " fill-opacity="1" fill-rule="nonzero"/><path fill="#b87d53" d="M 57.664062 10.875 C 57.636719 10.730469 57.453125 10.691406 57.335938 10.738281 C 57.269531 10.765625 57.234375 10.867188 57.324219 10.898438 C 57.375 10.917969 57.433594 10.902344 57.488281 10.914062 C 57.53125 10.925781 57.578125 10.960938 57.621094 10.949219 C 57.660156 10.9375 57.671875 10.90625 57.664062 10.875 " fill-opacity="1" fill-rule="nonzero"/><path fill="#724628" d="M 56.9375 9.714844 C 56.828125 9.765625 56.691406 9.828125 56.644531 9.945312 C 56.597656 10.058594 56.613281 10.179688 56.667969 10.285156 C 56.675781 10.308594 56.710938 10.285156 56.699219 10.265625 C 56.648438 10.152344 56.628906 9.984375 56.722656 9.890625 C 56.785156 9.828125 56.878906 9.789062 56.957031 9.75 C 56.980469 9.738281 56.960938 9.703125 56.9375 9.714844 " fill-opacity="1" fill-rule="nonzero"/><path fill="#b87d53" d="M 56.566406 10.816406 C 56.609375 10.835938 56.660156 10.808594 56.703125 10.804688 C 56.757812 10.800781 56.816406 10.824219 56.867188 10.8125 C 56.960938 10.796875 56.941406 10.691406 56.878906 10.652344 C 56.769531 10.585938 56.585938 10.601562 56.535156 10.738281 C 56.523438 10.769531 56.527344 10.800781 56.566406 10.816406 " fill-opacity="1" fill-rule="nonzero"/><path fill="#fabb87" d="M 54.457031 14.265625 C 54.566406 13.953125 54.742188 13.660156 54.871094 13.355469 C 54.9375 13.199219 54.988281 13.035156 55.015625 12.867188 C 55.042969 12.691406 55.023438 12.511719 55.035156 12.335938 C 55.039062 12.308594 55.023438 12.292969 55 12.285156 C 54.988281 12.273438 54.96875 12.265625 54.945312 12.269531 C 54.894531 12.285156 54.855469 12.308594 54.824219 12.339844 C 54.753906 12.292969 54.660156 12.324219 54.605469 12.394531 C 54.578125 12.433594 54.5625 12.476562 54.554688 12.519531 C 54.433594 12.589844 54.378906 12.707031 54.355469 12.839844 C 54.351562 12.871094 54.347656 12.902344 54.34375 12.929688 C 54.339844 12.957031 54.3125 12.976562 54.285156 12.964844 C 54.277344 12.960938 54.269531 12.957031 54.257812 12.953125 C 54.144531 12.929688 54.054688 13.292969 54.035156 13.359375 C 54.003906 13.453125 53.871094 13.855469 53.886719 13.957031 C 53.921875 14.164062 54.359375 14.347656 54.515625 14.429688 C 54.5625 14.453125 54.460938 14.308594 54.457031 14.269531 C 54.457031 14.265625 54.457031 14.265625 54.457031 14.265625 " fill-opacity="1" fill-rule="nonzero"/><path fill="#d67d5a" d="M 57.914062 11.054688 C 57.851562 11.117188 57.800781 11.1875 57.765625 11.265625 C 57.753906 11.289062 57.789062 11.308594 57.800781 11.285156 C 57.835938 11.210938 57.882812 11.144531 57.941406 11.085938 C 57.957031 11.066406 57.929688 11.039062 57.914062 11.054688 " fill-opacity="1" fill-rule="nonzero"/><path fill="#d67d5a" d="M 56.449219 11.105469 C 56.425781 11.03125 56.417969 10.960938 56.421875 10.886719 C 56.421875 10.859375 56.378906 10.859375 56.378906 10.886719 C 56.378906 10.964844 56.386719 11.039062 56.410156 11.117188 C 56.417969 11.140625 56.457031 11.128906 56.449219 11.105469 " fill-opacity="1" fill-rule="nonzero"/><path fill="#fabb87" d="M 55.445312 14.09375 C 55.449219 14.0625 55.441406 14.035156 55.421875 14.027344 C 55.207031 13.949219 54.980469 13.835938 54.753906 13.773438 C 54.738281 13.765625 54.726562 13.746094 54.738281 13.730469 C 54.832031 13.5625 54.945312 13.410156 55.039062 13.242188 C 55.136719 13.0625 55.066406 12.5625 55.019531 12.558594 C 54.855469 12.558594 54.835938 12.726562 54.824219 12.855469 C 54.796875 13.148438 54.539062 13.335938 54.386719 13.578125 C 54.28125 13.746094 54.113281 13.976562 54.175781 14.179688 C 54.230469 14.351562 54.703125 14.496094 54.773438 14.527344 C 54.914062 14.585938 55.054688 14.644531 55.199219 14.699219 C 55.199219 14.699219 55.195312 14.707031 55.195312 14.707031 C 55.214844 14.632812 55.28125 14.519531 55.316406 14.4375 C 55.335938 14.390625 55.433594 14.199219 55.445312 14.09375 " fill-opacity="1" fill-rule="nonzero"/><path fill="#f2e0dd" d="M 55.039062 13.800781 C 54.933594 13.769531 54.84375 13.742188 54.777344 13.726562 C 54.683594 13.703125 54.570312 14.261719 54.695312 14.804688 C 54.71875 14.910156 54.855469 14.929688 54.941406 14.972656 C 54.96875 14.988281 54.992188 15 55.019531 15.011719 C 54.921875 14.621094 54.976562 14.195312 55.039062 13.800781 " fill-opacity="1" fill-rule="nonzero"/><path fill="#244230" d="M 58.492188 12.214844 C 58.3125 12.332031 57.871094 12.894531 57.792969 13.128906 C 57.699219 13.402344 57.703125 13.972656 57.597656 14.242188 C 57.597656 14.25 57.59375 14.253906 57.59375 14.257812 C 57.550781 14.363281 57.4375 14.421875 57.328125 14.390625 C 57.027344 14.304688 56.714844 14.242188 56.457031 14.183594 C 55.910156 14.058594 55.363281 13.875 54.984375 13.753906 C 54.96875 13.75 54.949219 13.761719 54.945312 13.777344 C 54.878906 14.203125 54.824219 14.664062 54.925781 15.082031 C 54.929688 15.089844 54.933594 15.097656 54.941406 15.101562 C 55.21875 15.246094 55.492188 15.390625 55.773438 15.519531 C 56.054688 15.648438 56.347656 15.78125 56.648438 15.855469 C 57.023438 15.96875 57.421875 16.039062 57.792969 16.035156 C 58.316406 16.035156 58.566406 15.597656 58.710938 15.152344 C 58.972656 14.367188 59.113281 13.535156 59.230469 12.71875 C 59.261719 12.511719 58.726562 12.0625 58.492188 12.214844 " fill-opacity="1" fill-rule="nonzero"/><g clip-path="url(#7f098d7628)"><path fill="#daddeb" d="M 58.527344 7.554688 C 58.03125 6.964844 54.109375 5.96875 53.539062 5.972656 C 52.8125 5.976562 49.375 8.109375 49.171875 8.558594 C 48.144531 10.195312 47.738281 12.117188 47.574219 14.011719 C 47.476562 15.152344 47.457031 16.300781 47.496094 17.449219 C 47.535156 18.519531 47.652344 19.585938 47.976562 20.617188 C 48.199219 21.332031 49.050781 23.785156 49.488281 22.78125 C 50.304688 20.910156 51.769531 15.167969 58.519531 7.914062 C 58.546875 7.878906 58.570312 7.609375 58.527344 7.554688 " fill-opacity="1" fill-rule="nonzero"/></g><path fill="#3b1e1d" d="M 47.90625 12.804688 C 47.902344 12.804688 47.898438 12.804688 47.894531 12.800781 C 47.480469 12.667969 46.730469 12.640625 46.617188 13.132812 C 46.585938 13.265625 46.636719 13.402344 46.65625 13.539062 C 46.667969 13.660156 46.644531 13.789062 46.707031 13.90625 C 46.796875 14.066406 46.96875 14.121094 47.171875 14.109375 C 47.585938 14.085938 48.050781 13.882812 48.1875 13.738281 C 48.496094 13.414062 48.328125 12.949219 47.90625 12.804688 " fill-opacity="1" fill-rule="nonzero"/><path fill="#3b1e1d" d="M 54.421875 9.492188 C 54.308594 9.253906 53.992188 9.246094 53.765625 9.210938 C 53.574219 9.183594 53.351562 9.222656 53.191406 9.335938 C 53.089844 9.40625 53.054688 9.511719 53 9.613281 C 52.9375 9.738281 52.851562 9.835938 52.746094 9.929688 C 52.5625 10.097656 52.613281 10.226562 52.738281 10.425781 C 52.835938 10.585938 52.988281 10.910156 53.210938 10.886719 C 53.320312 10.875 53.429688 10.8125 53.523438 10.765625 C 53.6875 10.6875 53.902344 10.6875 54.042969 10.5625 C 54.175781 10.445312 54.195312 10.25 54.28125 10.101562 C 54.386719 9.914062 54.53125 9.714844 54.421875 9.492188 " fill-opacity="1" fill-rule="nonzero"/><path fill="#3b1e1d" d="M 46.710938 6.992188 C 46.765625 6.828125 46.761719 6.601562 46.746094 6.472656 C 46.714844 6.238281 46.570312 6.132812 46.335938 6.097656 C 46.171875 6.074219 46.039062 6.03125 45.898438 5.933594 C 45.835938 5.894531 45.773438 5.851562 45.695312 5.839844 C 45.511719 5.816406 45.375 5.957031 45.261719 6.074219 C 45.148438 6.1875 44.882812 6.371094 44.949219 6.554688 C 45.007812 6.730469 45.265625 6.84375 45.417969 6.90625 C 45.660156 7.003906 45.910156 7.09375 46.15625 7.175781 C 46.285156 7.21875 46.464844 7.246094 46.585938 7.167969 C 46.644531 7.132812 46.683594 7.070312 46.710938 6.992188 " fill-opacity="1" fill-rule="nonzero"/><g clip-path="url(#c7ddbf5c5a)"><path fill="#3b1e1d" d="M 50.519531 5.40625 C 50.496094 5.289062 50.414062 5.210938 50.347656 5.105469 C 50.300781 5.039062 50.25 4.914062 50.171875 4.929688 C 50.058594 4.953125 49.914062 5.140625 49.9375 5.300781 C 49.953125 5.375 49.988281 5.441406 50.023438 5.5 C 50.113281 5.644531 50.324219 6.011719 50.464844 5.742188 C 50.492188 5.691406 50.507812 5.625 50.519531 5.558594 C 50.53125 5.5 50.527344 5.449219 50.519531 5.40625 " fill-opacity="1" fill-rule="nonzero"/></g><path fill="#3b1e1d" d="M 50.320312 17.660156 C 50.390625 17.464844 50.53125 17.230469 50.421875 17.066406 C 50.332031 16.921875 50.136719 16.871094 49.972656 16.894531 C 49.5625 16.957031 49.1875 17.578125 49.171875 17.921875 C 49.164062 18.167969 49.515625 18.292969 49.765625 18.375 C 49.984375 18.449219 50.1875 18.324219 50.246094 18.121094 C 50.277344 18.011719 50.277344 17.898438 50.289062 17.789062 C 50.292969 17.75 50.304688 17.707031 50.320312 17.660156 " fill-opacity="1" fill-rule="nonzero"/><path fill="#3b1e1d" d="M 57.3125 15.988281 C 56.871094 15.949219 56.457031 15.796875 56.058594 15.621094 C 55.863281 15.539062 55.675781 15.449219 55.484375 15.359375 C 55.386719 15.316406 55.289062 15.269531 55.1875 15.222656 C 55.089844 15.179688 54.921875 15.128906 54.929688 14.996094 C 54.933594 14.972656 54.890625 14.972656 54.890625 14.996094 C 54.875 15.183594 55.144531 15.246094 55.273438 15.304688 C 55.503906 15.414062 55.738281 15.523438 55.96875 15.625 C 56.398438 15.816406 56.839844 15.984375 57.3125 16.027344 C 57.335938 16.03125 57.335938 15.992188 57.3125 15.988281 " fill-opacity="1" fill-rule="nonzero"/><path fill="#3b1e1d" d="M 56.21875 16.054688 C 55.871094 16.15625 55.511719 16.226562 55.152344 16.265625 C 55.125 16.265625 55.125 16.308594 55.152344 16.304688 C 55.515625 16.265625 55.875 16.195312 56.230469 16.09375 C 56.253906 16.085938 56.242188 16.046875 56.21875 16.054688 " fill-opacity="1" fill-rule="nonzero"/><path fill="#3b1e1d" d="M 58.230469 14.882812 C 58.113281 14.632812 57.90625 14.480469 57.664062 14.375 C 57.660156 14.082031 57.683594 13.789062 57.738281 13.5 C 57.742188 13.476562 57.707031 13.464844 57.699219 13.488281 C 57.648438 13.777344 57.621094 14.066406 57.621094 14.359375 C 57.332031 14.242188 57 14.191406 56.71875 14.140625 C 56.394531 14.082031 56.066406 14.027344 55.75 13.941406 C 55.597656 13.902344 55.453125 13.847656 55.304688 13.792969 C 55.191406 13.746094 55.070312 13.710938 54.953125 13.777344 C 54.933594 13.789062 54.953125 13.824219 54.972656 13.808594 C 55.121094 13.730469 55.289062 13.832031 55.429688 13.882812 C 55.566406 13.933594 55.703125 13.972656 55.847656 14.007812 C 56.128906 14.078125 56.417969 14.128906 56.707031 14.179688 C 57.234375 14.273438 57.941406 14.359375 58.195312 14.902344 C 58.207031 14.925781 58.242188 14.90625 58.230469 14.882812 " fill-opacity="1" fill-rule="nonzero"/><path fill="#3b1e1d" d="M 58.339844 14.292969 C 58.144531 14.246094 57.953125 14.25 57.761719 14.304688 C 57.734375 14.3125 57.746094 14.351562 57.773438 14.34375 C 57.957031 14.292969 58.140625 14.289062 58.328125 14.332031 C 58.355469 14.339844 58.363281 14.300781 58.339844 14.292969 " fill-opacity="1" fill-rule="nonzero"/><path fill="#381d1c" d="M 48.992188 22.320312 C 48.992188 22.320312 48.988281 22.320312 48.984375 22.316406 C 48.976562 22.3125 48.96875 22.300781 48.972656 22.292969 C 50.707031 17.359375 53.089844 13.601562 54.785156 11.320312 C 56.621094 8.847656 58.066406 7.523438 58.082031 7.511719 C 58.089844 7.503906 58.101562 7.503906 58.109375 7.511719 C 58.117188 7.519531 58.117188 7.535156 58.109375 7.542969 C 58.09375 7.554688 56.652344 8.875 54.816406 11.347656 C 53.125 13.625 50.746094 17.378906 49.011719 22.304688 C 49.007812 22.3125 49 22.320312 48.992188 22.320312 " fill-opacity="1" fill-rule="nonzero"/><path fill="#917877" d="M 46.671875 14.308594 C 46.023438 14.902344 45.441406 15.558594 44.925781 16.269531 C 44.894531 16.3125 44.964844 16.351562 44.996094 16.3125 C 45.507812 15.605469 46.085938 14.953125 46.730469 14.363281 C 46.765625 14.328125 46.710938 14.273438 46.671875 14.308594 " fill-opacity="1" fill-rule="nonzero"/><g clip-path="url(#f1c25c80b1)"><path fill="#917877" d="M 46.425781 13.9375 C 44.265625 14.347656 42.179688 15.117188 40.269531 16.207031 C 40.226562 16.230469 40.265625 16.300781 40.3125 16.273438 C 42.214844 15.1875 44.292969 14.425781 46.449219 14.011719 C 46.5 14.003906 46.476562 13.925781 46.425781 13.9375 " fill-opacity="1" fill-rule="nonzero"/></g><path fill="#daddeb" d="M 52.59375 11.457031 C 51.808594 12.484375 51.132812 13.585938 50.574219 14.753906 C 50.550781 14.800781 50.621094 14.839844 50.640625 14.792969 C 51.199219 13.628906 51.875 12.523438 52.660156 11.496094 C 52.691406 11.453125 52.625 11.414062 52.59375 11.457031 " fill-opacity="1" fill-rule="nonzero"/><path fill="#917877" d="M 50.847656 9.570312 C 49.898438 8.714844 48.816406 8.023438 47.640625 7.523438 C 47.59375 7.503906 47.550781 7.574219 47.597656 7.59375 C 48.75 8.082031 49.8125 8.753906 50.746094 9.585938 C 50.128906 9.847656 49.464844 9.980469 48.820312 10.167969 C 48.175781 10.355469 47.546875 10.582031 46.921875 10.832031 C 45.695312 11.324219 44.511719 11.910156 43.328125 12.503906 C 43.285156 12.527344 43.324219 12.59375 43.371094 12.570312 C 44.589844 11.960938 45.8125 11.355469 47.082031 10.855469 C 47.707031 10.609375 48.339844 10.386719 48.984375 10.203125 C 49.609375 10.027344 50.246094 9.894531 50.839844 9.632812 C 50.863281 9.621094 50.867188 9.585938 50.847656 9.570312 " fill-opacity="1" fill-rule="nonzero"/><path fill="#917877" d="M 50.910156 6.410156 C 50.886719 6.363281 50.816406 6.402344 50.839844 6.449219 C 51.136719 7 51.335938 7.589844 51.429688 8.207031 C 51.285156 7.984375 51.128906 7.765625 50.96875 7.554688 C 50.9375 7.515625 50.867188 7.554688 50.898438 7.597656 C 51.097656 7.855469 51.285156 8.125 51.460938 8.398438 C 51.480469 8.429688 51.539062 8.421875 51.535156 8.378906 C 51.449219 7.6875 51.238281 7.023438 50.910156 6.410156 " fill-opacity="1" fill-rule="nonzero"/><path fill="#917877" d="M 49.050781 18.476562 C 48.125 19.507812 47.296875 20.621094 46.574219 21.800781 C 46.546875 21.84375 46.613281 21.886719 46.640625 21.839844 C 47.359375 20.664062 48.1875 19.558594 49.109375 18.53125 C 49.140625 18.492188 49.085938 18.4375 49.050781 18.476562 " fill-opacity="1" fill-rule="nonzero"/><path fill="#daddeb" d="M 48.488281 19.84375 C 48.460938 19.890625 48.53125 19.929688 48.554688 19.886719 C 48.742188 19.558594 48.929688 19.230469 49.117188 18.902344 C 49.144531 18.859375 49.074219 18.820312 49.050781 18.863281 L 48.488281 19.84375 " fill-opacity="1" fill-rule="nonzero"/><path fill="#daddeb" d="M 50.765625 9.292969 C 50.511719 8.875 50.167969 8.527344 49.75 8.269531 C 49.707031 8.242188 49.664062 8.3125 49.710938 8.339844 C 50.117188 8.589844 50.449219 8.925781 50.695312 9.332031 C 50.722656 9.375 50.792969 9.335938 50.765625 9.292969 " fill-opacity="1" fill-rule="nonzero"/><path fill="#daddeb" d="M 52.617188 11.117188 C 52.007812 11.550781 51.480469 12.078125 51.042969 12.6875 C 51.015625 12.730469 51.085938 12.769531 51.113281 12.726562 C 51.542969 12.132812 52.0625 11.613281 52.660156 11.183594 C 52.699219 11.15625 52.660156 11.085938 52.617188 11.117188 " fill-opacity="1" fill-rule="nonzero"/><path fill="#724628" d="M 57.910156 9.871094 C 57.898438 9.847656 57.863281 9.871094 57.878906 9.890625 C 57.933594 10 57.976562 10.128906 57.960938 10.25 C 57.941406 10.382812 57.839844 10.429688 57.726562 10.472656 C 57.703125 10.480469 57.714844 10.519531 57.738281 10.511719 C 57.839844 10.472656 57.957031 10.425781 57.992188 10.3125 C 58.035156 10.167969 57.980469 9.996094 57.910156 9.871094 " fill-opacity="1" fill-rule="nonzero"/><path fill="#724628" d="M 57.808594 9.769531 C 57.800781 9.746094 57.761719 9.753906 57.769531 9.78125 C 57.808594 9.90625 57.824219 10.035156 57.820312 10.167969 C 57.820312 10.191406 57.859375 10.191406 57.859375 10.167969 C 57.863281 10.03125 57.847656 9.898438 57.808594 9.769531 " fill-opacity="1" fill-rule="nonzero"/><path fill="#724628" d="M 57.671875 9.503906 C 57.589844 9.4375 57.484375 9.414062 57.378906 9.4375 C 57.355469 9.441406 57.367188 9.480469 57.390625 9.476562 C 57.480469 9.453125 57.570312 9.472656 57.644531 9.535156 C 57.664062 9.550781 57.691406 9.523438 57.671875 9.503906 " fill-opacity="1" fill-rule="nonzero"/><path fill="#724628" d="M 57.699219 9.199219 C 57.6875 9.175781 57.652344 9.195312 57.664062 9.21875 C 57.679688 9.242188 57.6875 9.269531 57.683594 9.296875 C 57.6875 9.324219 57.671875 9.347656 57.644531 9.359375 C 57.636719 9.355469 57.632812 9.355469 57.625 9.355469 C 57.601562 9.359375 57.578125 9.351562 57.554688 9.347656 C 57.519531 9.339844 57.503906 9.339844 57.480469 9.3125 C 57.453125 9.296875 57.453125 9.277344 57.472656 9.253906 C 57.476562 9.242188 57.488281 9.234375 57.496094 9.222656 C 57.511719 9.207031 57.527344 9.195312 57.546875 9.183594 C 57.582031 9.15625 57.617188 9.136719 57.65625 9.117188 C 57.679688 9.105469 57.660156 9.070312 57.636719 9.082031 C 57.566406 9.117188 57.476562 9.164062 57.4375 9.234375 C 57.40625 9.285156 57.417969 9.34375 57.472656 9.367188 C 57.519531 9.386719 57.644531 9.417969 57.6875 9.386719 C 57.746094 9.347656 57.726562 9.25 57.699219 9.199219 " fill-opacity="1" fill-rule="nonzero"/><path fill="#d67d5a" d="M 54.914062 12.742188 C 54.910156 12.679688 54.914062 12.613281 54.878906 12.558594 C 54.875 12.550781 54.871094 12.542969 54.859375 12.542969 C 54.820312 12.535156 54.78125 12.554688 54.757812 12.582031 C 54.75 12.582031 54.742188 12.585938 54.738281 12.59375 C 54.683594 12.738281 54.726562 12.890625 54.683594 13.03125 C 54.644531 13.167969 54.507812 13.246094 54.425781 13.355469 C 54.269531 13.554688 54.21875 13.816406 54.273438 14.058594 C 54.28125 14.085938 54.320312 14.074219 54.3125 14.046875 C 54.246094 13.757812 54.34375 13.472656 54.558594 13.265625 C 54.636719 13.191406 54.707031 13.121094 54.730469 13.011719 C 54.757812 12.886719 54.734375 12.761719 54.769531 12.636719 C 54.769531 12.636719 54.773438 12.632812 54.773438 12.628906 C 54.785156 12.601562 54.8125 12.582031 54.84375 12.582031 C 54.886719 12.644531 54.875 12.746094 54.878906 12.820312 C 54.886719 12.894531 54.890625 12.96875 54.894531 13.042969 C 54.898438 13.210938 54.839844 13.347656 54.765625 13.496094 C 54.753906 13.519531 54.789062 13.539062 54.800781 13.515625 C 54.878906 13.363281 54.9375 13.21875 54.933594 13.042969 C 54.929688 12.941406 54.921875 12.84375 54.914062 12.742188 " fill-opacity="1" fill-rule="nonzero"/><path fill="#3b1e1d" d="M 55.78125 18.902344 C 55.878906 18.726562 55.984375 18.554688 56.109375 18.402344 C 56.238281 18.246094 56.425781 18.179688 56.574219 18.042969 C 56.59375 18.027344 56.621094 18.054688 56.601562 18.074219 C 56.464844 18.199219 56.28125 18.261719 56.15625 18.40625 C 56.023438 18.558594 55.914062 18.742188 55.816406 18.921875 C 55.804688 18.941406 55.769531 18.921875 55.78125 18.902344 " fill-opacity="1" fill-rule="nonzero"/><path fill="#bf5e22" d="M 93.414062 23.136719 L 91.863281 20.449219 C 91.792969 20.328125 91.757812 20.195312 91.757812 20.058594 L 91.757812 16.59375 C 91.757812 16.328125 91.769531 16.0625 91.800781 15.796875 C 91.992188 14.058594 91.898438 12.300781 91.53125 10.59375 L 93.199219 10.402344 C 93.054688 10.382812 92.914062 10.332031 92.792969 10.253906 L 91.148438 9.15625 C 91.148438 9.152344 91.148438 9.148438 91.148438 9.148438 L 86.796875 9.527344 L 85.578125 11.261719 C 85.492188 11.382812 85.378906 11.480469 85.25 11.546875 L 87.179688 10.960938 C 87.476562 12.339844 87.597656 13.75 87.53125 15.160156 C 87.5 15.785156 87.390625 16.402344 87.214844 17 L 86.367188 19.839844 C 86.328125 19.96875 86.308594 20.105469 86.304688 20.242188 L 86.210938 23.605469 C 86.175781 24.894531 88.121094 24.964844 88.15625 23.660156 L 88.246094 20.472656 C 88.25 20.390625 88.261719 20.308594 88.285156 20.230469 L 89.40625 16.472656 C 89.429688 16.390625 89.5 16.332031 89.585938 16.324219 C 89.707031 16.316406 89.808594 16.410156 89.808594 16.53125 L 89.808594 20.371094 C 89.808594 20.644531 89.882812 20.914062 90.019531 21.148438 L 91.726562 24.109375 C 92.371094 25.226562 94.066406 24.261719 93.414062 23.136719 Z M 93.414062 23.136719 " fill-opacity="1" fill-rule="nonzero"/><g clip-path="url(#2fda05cfd7)"><path fill="#bf5e22" d="M 89.621094 7.011719 C 89.847656 6.671875 90.308594 6.582031 90.648438 6.804688 L 93.722656 8.859375 C 94.0625 9.085938 94.15625 9.542969 93.929688 9.882812 C 93.703125 10.226562 93.242188 10.316406 92.902344 10.089844 L 89.828125 8.039062 C 89.488281 7.8125 89.394531 7.355469 89.621094 7.011719 Z M 89.621094 7.011719 " fill-opacity="1" fill-rule="nonzero"/></g><path fill="#bf5e22" d="M 87.367188 7.097656 C 87.035156 6.863281 86.570312 6.941406 86.335938 7.273438 L 84.207031 10.296875 C 83.972656 10.632812 84.050781 11.09375 84.382812 11.328125 C 84.71875 11.566406 85.179688 11.484375 85.417969 11.148438 L 87.542969 8.128906 C 87.78125 7.796875 87.703125 7.335938 87.367188 7.097656 Z M 87.367188 7.097656 " fill-opacity="1" fill-rule="nonzero"/><path fill="#bf5e22" d="M 92.046875 5.433594 C 92 5.214844 91.382812 5.195312 90.910156 5.824219 C 90.894531 5.839844 90.914062 5.863281 90.933594 5.855469 C 91.421875 5.613281 92.128906 5.792969 92.046875 5.433594 Z M 92.046875 5.433594 " fill-opacity="1" fill-rule="nonzero"/><path fill="#bf5e22" d="M 91.066406 5.058594 C 90.941406 4.929688 90.511719 5.171875 90.445312 5.796875 C 90.445312 5.8125 90.46875 5.820312 90.476562 5.804688 C 90.710938 5.441406 91.269531 5.273438 91.066406 5.058594 Z M 91.066406 5.058594 " fill-opacity="1" fill-rule="nonzero"/><path fill="#bf5e22" d="M 91.808594 6.386719 C 91.839844 6.210938 91.390625 6.011719 90.851562 6.332031 C 90.835938 6.339844 90.84375 6.363281 90.859375 6.363281 C 91.292969 6.328125 91.761719 6.679688 91.808594 6.386719 Z M 91.808594 6.386719 " fill-opacity="1" fill-rule="nonzero"/><path fill="#bf5e22" d="M 84.933594 5.855469 C 84.960938 5.632812 85.574219 5.558594 86.101562 6.140625 C 86.117188 6.15625 86.097656 6.179688 86.078125 6.171875 C 85.574219 5.972656 84.882812 6.21875 84.933594 5.855469 Z M 84.933594 5.855469 " fill-opacity="1" fill-rule="nonzero"/><path fill="#bf5e22" d="M 85.875 5.394531 C 85.988281 5.253906 86.4375 5.453125 86.558594 6.070312 C 86.5625 6.085938 86.539062 6.097656 86.53125 6.082031 C 86.265625 5.738281 85.691406 5.621094 85.875 5.394531 Z M 85.875 5.394531 " fill-opacity="1" fill-rule="nonzero"/><path fill="#bf5e22" d="M 85.253906 6.78125 C 85.210938 6.609375 85.640625 6.371094 86.207031 6.640625 C 86.222656 6.648438 86.214844 6.671875 86.199219 6.671875 C 85.765625 6.679688 85.328125 7.066406 85.253906 6.78125 Z M 85.253906 6.78125 " fill-opacity="1" fill-rule="nonzero"/><path fill="#bf5e22" d="M 89.71875 8.203125 C 89.511719 8.0625 89.371094 7.851562 89.320312 7.609375 C 89.273438 7.363281 89.320312 7.113281 89.460938 6.90625 C 89.625 6.65625 89.894531 6.503906 90.191406 6.492188 C 89.878906 5.871094 89.21875 5.460938 88.480469 5.507812 C 87.714844 5.554688 87.089844 6.078125 86.878906 6.769531 C 86.898438 6.769531 86.917969 6.765625 86.941406 6.765625 C 87.132812 6.765625 87.320312 6.828125 87.480469 6.9375 C 87.902344 7.238281 88 7.820312 87.703125 8.242188 L 87.414062 8.652344 C 87.757812 8.949219 88.214844 9.117188 88.703125 9.085938 C 89.238281 9.054688 89.703125 8.789062 90.007812 8.394531 Z M 89.535156 8.34375 L 87.820312 8.449219 C 87.808594 8.449219 87.796875 8.4375 87.800781 8.425781 C 87.90625 8.121094 88.308594 7.871094 88.644531 7.851562 C 88.980469 7.832031 89.40625 8.027344 89.546875 8.320312 C 89.554688 8.328125 89.546875 8.34375 89.535156 8.34375 Z M 89.535156 8.34375 " fill-opacity="1" fill-rule="nonzero"/><g clip-path="url(#0716df8cbb)"><path fill="#bf5e22" d="M 33.898438 10.332031 C 33.710938 10.335938 33.546875 10.40625 33.414062 10.542969 C 33.28125 10.679688 33.21875 10.84375 33.21875 11.03125 L 33.21875 13.792969 L 30.460938 13.792969 C 30.269531 13.789062 30.105469 13.855469 29.96875 13.992188 C 29.828125 14.125 29.761719 14.289062 29.761719 14.480469 C 29.761719 14.675781 29.828125 14.835938 29.96875 14.972656 C 30.105469 15.109375 30.269531 15.175781 30.460938 15.171875 L 33.21875 15.171875 L 33.21875 17.929688 C 33.21875 18.125 33.285156 18.289062 33.417969 18.425781 C 33.554688 18.5625 33.71875 18.628906 33.910156 18.628906 C 34.101562 18.628906 34.265625 18.5625 34.402344 18.425781 C 34.535156 18.289062 34.601562 18.125 34.601562 17.929688 L 34.601562 15.171875 L 37.359375 15.171875 C 37.550781 15.175781 37.714844 15.109375 37.851562 14.972656 C 37.992188 14.835938 38.058594 14.675781 38.058594 14.480469 C 38.058594 14.289062 37.992188 14.125 37.851562 13.992188 C 37.714844 13.855469 37.550781 13.789062 37.359375 13.792969 L 34.601562 13.792969 L 34.601562 11.03125 C 34.601562 10.839844 34.535156 10.671875 34.398438 10.535156 C 34.261719 10.398438 34.09375 10.332031 33.898438 10.332031 Z M 33.898438 10.332031 " fill-opacity="1" fill-rule="nonzero"/></g><g clip-path="url(#43b82a0f8c)"><path fill="#bf5e22" d="M 77.414062 14.527344 L 67.542969 14.527344 L 67.542969 12.449219 L 77.414062 12.449219 L 77.414062 14.527344 " fill-opacity="1" fill-rule="nonzero"/></g><g clip-path="url(#d712fe8429)"><path fill="#bf5e22" d="M 77.414062 18.679688 L 67.542969 18.679688 L 67.542969 16.605469 L 77.414062 16.605469 L 77.414062 18.679688 " fill-opacity="1" fill-rule="nonzero"/></g></svg>