<svg xmlns="http://www.w3.org/2000/svg" xmlns:xlink="http://www.w3.org/1999/xlink" width="150" zoomAndPan="magnify" viewBox="0 0 112.5 30.000001" height="40" preserveAspectRatio="xMidYMid meet" version="1.0"><defs><clipPath id="c2d4c47d10"><path d="M 1.574219 0 L 110.445312 0 L 110.445312 29.03125 L 1.574219 29.03125 Z M 1.574219 0 " clip-rule="nonzero"/></clipPath><clipPath id="dfc63db276"><path d="M 22 11 L 27 11 L 27 25.902344 L 22 25.902344 Z M 22 11 " clip-rule="nonzero"/></clipPath><clipPath id="94ad5353b3"><path d="M 23 7.757812 L 27 7.757812 L 27 12 L 23 12 Z M 23 7.757812 " clip-rule="nonzero"/></clipPath><clipPath id="2c72146982"><path d="M 26 2 L 28 2 L 28 4 L 26 4 Z M 26 2 " clip-rule="nonzero"/></clipPath><clipPath id="1e89576ee9"><path d="M 28.890625 0 L 34.144531 3.886719 L 30.257812 9.136719 L 25.007812 5.253906 Z M 28.890625 0 " clip-rule="nonzero"/></clipPath><clipPath id="2fcbacc83d"><path d="M 28.890625 0 L 34.144531 3.886719 L 30.257812 9.136719 L 25.007812 5.253906 Z M 28.890625 0 " clip-rule="nonzero"/></clipPath><clipPath id="b4b1901c84"><path d="M 31 5 L 33 5 L 33 7 L 31 7 Z M 31 5 " clip-rule="nonzero"/></clipPath><clipPath id="4eae72ff4d"><path d="M 28.890625 0 L 34.144531 3.886719 L 30.257812 9.136719 L 25.007812 5.253906 Z M 28.890625 0 " clip-rule="nonzero"/></clipPath><clipPath id="1708d84624"><path d="M 28.890625 0 L 34.144531 3.886719 L 30.257812 9.136719 L 25.007812 5.253906 Z M 28.890625 0 " clip-rule="nonzero"/></clipPath><clipPath id="2fd935cc0a"><path d="M 31 3 L 33 3 L 33 5 L 31 5 Z M 31 3 " clip-rule="nonzero"/></clipPath><clipPath id="ec3bfe5c89"><path d="M 28.890625 0 L 34.144531 3.886719 L 30.257812 9.136719 L 25.007812 5.253906 Z M 28.890625 0 " clip-rule="nonzero"/></clipPath><clipPath id="4f8f46f903"><path d="M 28.890625 0 L 34.144531 3.886719 L 30.257812 9.136719 L 25.007812 5.253906 Z M 28.890625 0 " clip-rule="nonzero"/></clipPath><clipPath id="8fc13295b8"><path d="M 30 1 L 32 1 L 32 3 L 30 3 Z M 30 1 " clip-rule="nonzero"/></clipPath><clipPath id="a2ac317461"><path d="M 28.890625 0 L 34.144531 3.886719 L 30.257812 9.136719 L 25.007812 5.253906 Z M 28.890625 0 " clip-rule="nonzero"/></clipPath><clipPath id="eefa16e169"><path d="M 28.890625 0 L 34.144531 3.886719 L 30.257812 9.136719 L 25.007812 5.253906 Z M 28.890625 0 " clip-rule="nonzero"/></clipPath><clipPath id="ea96a3e283"><path d="M 28 1 L 30 1 L 30 3 L 28 3 Z M 28 1 " clip-rule="nonzero"/></clipPath><clipPath id="7dbac472fd"><path d="M 28.890625 0 L 34.144531 3.886719 L 30.257812 9.136719 L 25.007812 5.253906 Z M 28.890625 0 " clip-rule="nonzero"/></clipPath><clipPath id="64dae70a8d"><path d="M 28.890625 0 L 34.144531 3.886719 L 30.257812 9.136719 L 25.007812 5.253906 Z M 28.890625 0 " clip-rule="nonzero"/></clipPath><clipPath id="7bbec34dca"><path d="M 27 2 L 32 2 L 32 7 L 27 7 Z M 27 2 " clip-rule="nonzero"/></clipPath><clipPath id="f698cacf5c"><path d="M 28.890625 0 L 34.144531 3.886719 L 30.257812 9.136719 L 25.007812 5.253906 Z M 28.890625 0 " clip-rule="nonzero"/></clipPath><clipPath id="3d1618eaf7"><path d="M 28.890625 0 L 34.144531 3.886719 L 30.257812 9.136719 L 25.007812 5.253906 Z M 28.890625 0 " clip-rule="nonzero"/></clipPath><clipPath id="dd1e8b3389"><path d="M 27 5 L 30 5 L 30 8 L 27 8 Z M 27 5 " clip-rule="nonzero"/></clipPath><clipPath id="d99654ff79"><path d="M 28.890625 0 L 34.144531 3.886719 L 30.257812 9.136719 L 25.007812 5.253906 Z M 28.890625 0 " clip-rule="nonzero"/></clipPath><clipPath id="452cbefd7a"><path d="M 28.890625 0 L 34.144531 3.886719 L 30.257812 9.136719 L 25.007812 5.253906 Z M 28.890625 0 " clip-rule="nonzero"/></clipPath><clipPath id="867f3028f2"><path d="M 29 3 L 31 3 L 31 6 L 29 6 Z M 29 3 " clip-rule="nonzero"/></clipPath><clipPath id="cd46c085e6"><path d="M 28.890625 0 L 34.144531 3.886719 L 30.257812 9.136719 L 25.007812 5.253906 Z M 28.890625 0 " clip-rule="nonzero"/></clipPath><clipPath id="d2a54cc81a"><path d="M 28.890625 0 L 34.144531 3.886719 L 30.257812 9.136719 L 25.007812 5.253906 Z M 28.890625 0 " clip-rule="nonzero"/></clipPath><clipPath id="d890df1494"><path d="M 13 2 L 22 2 L 22 10 L 13 10 Z M 13 2 " clip-rule="nonzero"/></clipPath><clipPath id="ce23285d39"><path d="M 12.605469 5.179688 L 18.371094 2.113281 L 21.441406 7.878906 L 15.671875 10.949219 Z M 12.605469 5.179688 " clip-rule="nonzero"/></clipPath><clipPath id="52ad5da58a"><path d="M 12.605469 5.179688 L 18.371094 2.113281 L 21.441406 7.878906 L 15.671875 10.949219 Z M 12.605469 5.179688 " clip-rule="nonzero"/></clipPath><clipPath id="d2d493270c"><path d="M 17 8 L 21 8 L 21 11 L 17 11 Z M 17 8 " clip-rule="nonzero"/></clipPath><clipPath id="b1aae26d94"><path d="M 12.605469 5.179688 L 18.371094 2.113281 L 21.441406 7.878906 L 15.671875 10.949219 Z M 12.605469 5.179688 " clip-rule="nonzero"/></clipPath><clipPath id="12b11d3037"><path d="M 12.605469 5.179688 L 18.371094 2.113281 L 21.441406 7.878906 L 15.671875 10.949219 Z M 12.605469 5.179688 " clip-rule="nonzero"/></clipPath><clipPath id="8c9e901a64"><path d="M 16 3 L 19 3 L 19 6 L 16 6 Z M 16 3 " clip-rule="nonzero"/></clipPath><clipPath id="92c08981e7"><path d="M 12.605469 5.179688 L 18.371094 2.113281 L 21.441406 7.878906 L 15.671875 10.949219 Z M 12.605469 5.179688 " clip-rule="nonzero"/></clipPath><clipPath id="3fd5a70918"><path d="M 12.605469 5.179688 L 18.371094 2.113281 L 21.441406 7.878906 L 15.671875 10.949219 Z M 12.605469 5.179688 " clip-rule="nonzero"/></clipPath><clipPath id="1ba8e51472"><path d="M 17 4 L 18 4 L 18 5 L 17 5 Z M 17 4 " clip-rule="nonzero"/></clipPath><clipPath id="1f71a36b19"><path d="M 12.605469 5.179688 L 18.371094 2.113281 L 21.441406 7.878906 L 15.671875 10.949219 Z M 12.605469 5.179688 " clip-rule="nonzero"/></clipPath><clipPath id="2eae98d9f6"><path d="M 12.605469 5.179688 L 18.371094 2.113281 L 21.441406 7.878906 L 15.671875 10.949219 Z M 12.605469 5.179688 " clip-rule="nonzero"/></clipPath><clipPath id="b42bdfa254"><path d="M 15 5 L 18 5 L 18 8 L 15 8 Z M 15 5 " clip-rule="nonzero"/></clipPath><clipPath id="73b0558c3b"><path d="M 12.605469 5.179688 L 18.371094 2.113281 L 21.441406 7.878906 L 15.671875 10.949219 Z M 12.605469 5.179688 " clip-rule="nonzero"/></clipPath><clipPath id="7a1396812b"><path d="M 12.605469 5.179688 L 18.371094 2.113281 L 21.441406 7.878906 L 15.671875 10.949219 Z M 12.605469 5.179688 " clip-rule="nonzero"/></clipPath><clipPath id="d0e65e0685"><path d="M 16 6 L 17 6 L 17 7 L 16 7 Z M 16 6 " clip-rule="nonzero"/></clipPath><clipPath id="7002fffc7a"><path d="M 12.605469 5.179688 L 18.371094 2.113281 L 21.441406 7.878906 L 15.671875 10.949219 Z M 12.605469 5.179688 " clip-rule="nonzero"/></clipPath><clipPath id="f8177c543b"><path d="M 12.605469 5.179688 L 18.371094 2.113281 L 21.441406 7.878906 L 15.671875 10.949219 Z M 12.605469 5.179688 " clip-rule="nonzero"/></clipPath><clipPath id="52802e617e"><path d="M 14 3 L 17 3 L 17 6 L 14 6 Z M 14 3 " clip-rule="nonzero"/></clipPath><clipPath id="274243067c"><path d="M 12.605469 5.179688 L 18.371094 2.113281 L 21.441406 7.878906 L 15.671875 10.949219 Z M 12.605469 5.179688 " clip-rule="nonzero"/></clipPath><clipPath id="6380935071"><path d="M 12.605469 5.179688 L 18.371094 2.113281 L 21.441406 7.878906 L 15.671875 10.949219 Z M 12.605469 5.179688 " clip-rule="nonzero"/></clipPath><clipPath id="fc24d5681e"><path d="M 15 4 L 16 4 L 16 5 L 15 5 Z M 15 4 " clip-rule="nonzero"/></clipPath><clipPath id="6bb4cc31e0"><path d="M 12.605469 5.179688 L 18.371094 2.113281 L 21.441406 7.878906 L 15.671875 10.949219 Z M 12.605469 5.179688 " clip-rule="nonzero"/></clipPath><clipPath id="e6a636a04c"><path d="M 12.605469 5.179688 L 18.371094 2.113281 L 21.441406 7.878906 L 15.671875 10.949219 Z M 12.605469 5.179688 " clip-rule="nonzero"/></clipPath><clipPath id="fbaa6a7288"><path d="M 38 11 L 43.847656 11 L 43.847656 17 L 38 17 Z M 38 11 " clip-rule="nonzero"/></clipPath><clipPath id="efb90114fd"><path d="M 38 15 L 43 15 L 43 25.902344 L 38 25.902344 Z M 38 15 " clip-rule="nonzero"/></clipPath><clipPath id="6ccd62648a"><path d="M 37.316406 11 L 42 11 L 42 16 L 37.316406 16 Z M 37.316406 11 " clip-rule="nonzero"/></clipPath><clipPath id="3e61df4848"><path d="M 38 7.757812 L 43 7.757812 L 43 12 L 38 12 Z M 38 7.757812 " clip-rule="nonzero"/></clipPath><clipPath id="4477387282"><path d="M 58 7.242188 L 62 7.242188 L 62 12 L 58 12 Z M 58 7.242188 " clip-rule="nonzero"/></clipPath><clipPath id="ba4ac413f8"><path d="M 54 10 L 67 10 L 67 26.109375 L 54 26.109375 Z M 54 10 " clip-rule="nonzero"/></clipPath><clipPath id="1161fc80bf"><path d="M 63 8 L 69.730469 8 L 69.730469 19 L 63 19 Z M 63 8 " clip-rule="nonzero"/></clipPath><clipPath id="b2ab6a227f"><path d="M 73.320312 6.558594 L 95.820312 6.558594 L 95.820312 26 L 73.320312 26 Z M 73.320312 6.558594 " clip-rule="nonzero"/></clipPath></defs><g clip-path="url(#c2d4c47d10)"><path fill="#ffffff" d="M 1.574219 0 L 110.445312 0 L 110.445312 29.03125 L 1.574219 29.03125 Z M 1.574219 0 " fill-opacity="1" fill-rule="nonzero"/><path fill="#ffffff" d="M 1.574219 0 L 110.445312 0 L 110.445312 29.03125 L 1.574219 29.03125 Z M 1.574219 0 " fill-opacity="1" fill-rule="nonzero"/></g><g clip-path="url(#dfc63db276)"><path fill="#bf5e22" d="M 26.996094 13.746094 L 26.996094 12.148438 L 26.464844 11.863281 L 23.578125 11.863281 L 22.941406 12.148438 L 22.941406 18.410156 C 22.941406 18.425781 22.941406 18.441406 22.945312 18.460938 C 22.941406 18.476562 22.941406 18.492188 22.941406 18.507812 L 22.941406 25.398438 C 22.941406 25.851562 23.347656 26.222656 23.851562 26.222656 C 24.351562 26.222656 24.757812 25.851562 24.757812 25.398438 L 24.757812 18.246094 C 24.898438 18.253906 25.042969 18.253906 25.179688 18.246094 L 25.179688 25.398438 C 25.179688 25.851562 25.589844 26.222656 26.089844 26.222656 C 26.589844 26.222656 26.996094 25.851562 26.996094 25.398438 L 26.996094 18.507812 C 26.996094 18.492188 26.996094 18.480469 26.992188 18.46875 C 26.996094 18.449219 26.996094 18.429688 26.996094 18.410156 L 26.996094 13.746094 " fill-opacity="1" fill-rule="nonzero"/></g><path fill="#bf5e22" d="M 28.113281 19.433594 C 28.09375 19.433594 28.074219 19.433594 28.054688 19.433594 C 27.726562 19.398438 27.488281 19.105469 27.519531 18.777344 C 28.019531 13.734375 26.355469 13.050781 26.335938 13.046875 C 26.015625 12.976562 25.808594 12.65625 25.878906 12.332031 C 25.949219 12.011719 26.269531 11.808594 26.59375 11.875 C 26.875 11.9375 29.328125 12.660156 28.707031 18.894531 C 28.679688 19.203125 28.417969 19.433594 28.113281 19.433594 " fill-opacity="1" fill-rule="nonzero"/><path fill="#bf5e22" d="M 21.992188 19.433594 C 22.011719 19.433594 22.03125 19.433594 22.050781 19.433594 C 22.382812 19.398438 22.621094 19.105469 22.589844 18.777344 C 22.085938 13.734375 23.753906 13.050781 23.769531 13.046875 C 24.09375 12.976562 24.296875 12.65625 24.226562 12.332031 C 24.15625 12.011719 23.835938 11.808594 23.515625 11.875 C 23.234375 11.9375 20.777344 12.660156 21.398438 18.894531 C 21.429688 19.203125 21.6875 19.433594 21.992188 19.433594 " fill-opacity="1" fill-rule="nonzero"/><g clip-path="url(#94ad5353b3)"><path fill="#bf5e22" d="M 24.96875 11.605469 C 26.023438 11.605469 26.882812 10.746094 26.882812 9.691406 C 26.882812 8.636719 26.023438 7.777344 24.96875 7.777344 C 23.914062 7.777344 23.054688 8.636719 23.054688 9.691406 C 23.054688 10.746094 23.914062 11.605469 24.96875 11.605469 " fill-opacity="1" fill-rule="nonzero"/></g><g clip-path="url(#2c72146982)"><g clip-path="url(#1e89576ee9)"><g clip-path="url(#2fcbacc83d)"><path fill="#bf5e22" d="M 27.019531 2.882812 L 27.503906 3.238281 C 27.601562 3.3125 27.742188 3.292969 27.816406 3.191406 C 27.890625 3.09375 27.867188 2.953125 27.769531 2.878906 L 27.289062 2.523438 C 27.1875 2.449219 27.046875 2.46875 26.972656 2.570312 C 26.898438 2.667969 26.921875 2.808594 27.019531 2.882812 Z M 27.019531 2.882812 " fill-opacity="1" fill-rule="evenodd"/></g></g></g><g clip-path="url(#b4b1901c84)"><g clip-path="url(#4eae72ff4d)"><g clip-path="url(#1708d84624)"><path fill="#bf5e22" d="M 32.105469 6.085938 L 31.625 5.730469 C 31.523438 5.65625 31.382812 5.675781 31.308594 5.777344 C 31.234375 5.875 31.257812 6.015625 31.355469 6.089844 L 31.835938 6.445312 C 31.9375 6.519531 32.078125 6.5 32.152344 6.398438 C 32.226562 6.300781 32.203125 6.160156 32.105469 6.085938 Z M 32.105469 6.085938 " fill-opacity="1" fill-rule="evenodd"/></g></g></g><g clip-path="url(#2fd935cc0a)"><g clip-path="url(#ec3bfe5c89)"><g clip-path="url(#4f8f46f903)"><path fill="#bf5e22" d="M 32.492188 3.820312 L 31.898438 3.90625 C 31.777344 3.925781 31.691406 4.039062 31.710938 4.164062 C 31.730469 4.285156 31.84375 4.371094 31.964844 4.351562 L 32.558594 4.261719 C 32.679688 4.246094 32.765625 4.128906 32.746094 4.007812 C 32.730469 3.886719 32.613281 3.800781 32.492188 3.820312 Z M 32.492188 3.820312 " fill-opacity="1" fill-rule="evenodd"/></g></g></g><g clip-path="url(#8fc13295b8)"><g clip-path="url(#a2ac317461)"><g clip-path="url(#eefa16e169)"><path fill="#bf5e22" d="M 31.164062 1.941406 L 30.808594 2.421875 C 30.734375 2.523438 30.753906 2.664062 30.855469 2.738281 C 30.953125 2.8125 31.09375 2.789062 31.167969 2.691406 L 31.523438 2.210938 C 31.597656 2.109375 31.578125 1.96875 31.476562 1.894531 C 31.378906 1.820312 31.238281 1.84375 31.164062 1.941406 Z M 31.164062 1.941406 " fill-opacity="1" fill-rule="evenodd"/></g></g></g><g clip-path="url(#ea96a3e283)"><g clip-path="url(#7dbac472fd)"><g clip-path="url(#64dae70a8d)"><path fill="#bf5e22" d="M 28.898438 1.554688 L 28.984375 2.148438 C 29.003906 2.269531 29.117188 2.355469 29.242188 2.335938 C 29.363281 2.316406 29.449219 2.203125 29.429688 2.082031 L 29.339844 1.488281 C 29.324219 1.367188 29.207031 1.28125 29.085938 1.300781 C 28.964844 1.316406 28.878906 1.433594 28.898438 1.554688 Z M 28.898438 1.554688 " fill-opacity="1" fill-rule="evenodd"/></g></g></g><g clip-path="url(#7bbec34dca)"><g clip-path="url(#f698cacf5c)"><g clip-path="url(#3d1618eaf7)"><path fill="#bf5e22" d="M 27.449219 5.449219 L 27.414062 5.503906 C 27.289062 5.667969 27.324219 5.902344 27.492188 6.027344 C 27.761719 6.226562 28.421875 6.714844 28.695312 6.917969 C 28.859375 7.039062 29.097656 7.003906 29.21875 6.839844 C 29.226562 6.828125 29.234375 6.816406 29.242188 6.808594 C 29.25 6.800781 29.253906 6.792969 29.257812 6.789062 C 29.4375 6.546875 29.695312 6.378906 29.984375 6.308594 C 30.40625 6.210938 30.792969 5.96875 31.066406 5.597656 C 31.683594 4.765625 31.507812 3.59375 30.675781 2.980469 C 29.84375 2.363281 28.671875 2.539062 28.058594 3.371094 C 27.78125 3.742188 27.664062 4.183594 27.695312 4.613281 C 27.714844 4.914062 27.628906 5.210938 27.449219 5.449219 Z M 28.902344 6.511719 L 27.816406 5.710938 C 28.054688 5.382812 28.171875 4.984375 28.144531 4.585938 C 28.144531 4.582031 28.144531 4.582031 28.144531 4.582031 C 28.121094 4.257812 28.210938 3.921875 28.417969 3.636719 C 28.886719 3.007812 29.777344 2.871094 30.410156 3.339844 C 31.039062 3.808594 31.175781 4.699219 30.707031 5.332031 C 30.496094 5.613281 30.203125 5.796875 29.882812 5.871094 C 29.492188 5.964844 29.144531 6.191406 28.902344 6.511719 Z M 28.902344 6.511719 " fill-opacity="1" fill-rule="evenodd"/></g></g></g><g clip-path="url(#dd1e8b3389)"><g clip-path="url(#d99654ff79)"><g clip-path="url(#452cbefd7a)"><path fill="#bf5e22" d="M 29.007812 6.871094 C 29.082031 6.769531 29.0625 6.628906 28.960938 6.554688 L 27.757812 5.664062 C 27.65625 5.589844 27.515625 5.613281 27.445312 5.710938 L 27.175781 6.074219 C 27.09375 6.183594 27.058594 6.324219 27.078125 6.460938 C 27.101562 6.601562 27.175781 6.722656 27.285156 6.804688 C 27.496094 6.960938 27.800781 7.1875 28.007812 7.339844 C 28.121094 7.421875 28.261719 7.457031 28.398438 7.4375 C 28.535156 7.417969 28.660156 7.34375 28.742188 7.230469 C 28.832031 7.109375 29.007812 6.871094 29.007812 6.871094 Z M 28.515625 6.785156 L 28.378906 6.964844 C 28.367188 6.980469 28.351562 6.992188 28.332031 6.992188 C 28.3125 6.996094 28.292969 6.992188 28.277344 6.980469 L 27.554688 6.445312 C 27.539062 6.433594 27.527344 6.414062 27.523438 6.394531 C 27.519531 6.375 27.527344 6.355469 27.539062 6.339844 C 27.539062 6.339844 27.671875 6.160156 27.671875 6.160156 Z M 28.515625 6.785156 " fill-opacity="1" fill-rule="evenodd"/></g></g></g><g clip-path="url(#867f3028f2)"><g clip-path="url(#cd46c085e6)"><g clip-path="url(#d2a54cc81a)"><path fill="#bf5e22" d="M 29.964844 3.941406 C 30.261719 4.164062 30.324219 4.585938 30.105469 4.886719 C 30.03125 4.984375 30.050781 5.125 30.152344 5.199219 C 30.25 5.273438 30.390625 5.253906 30.464844 5.152344 C 30.835938 4.652344 30.730469 3.949219 30.230469 3.582031 C 30.132812 3.507812 29.992188 3.527344 29.917969 3.628906 C 29.84375 3.726562 29.863281 3.867188 29.964844 3.941406 Z M 29.964844 3.941406 " fill-opacity="1" fill-rule="evenodd"/></g></g></g><g clip-path="url(#d890df1494)"><g clip-path="url(#ce23285d39)"><g clip-path="url(#52ad5da58a)"><path fill="#bf5e22" d="M 18.847656 2.78125 L 17.976562 3.246094 C 18.117188 3.292969 18.203125 3.441406 18.175781 3.585938 L 18.175781 3.601562 L 18.824219 3.257812 L 20.445312 6.296875 L 15.167969 9.105469 L 13.550781 6.0625 L 14.71875 5.441406 L 14.609375 5.34375 C 14.539062 5.277344 14.507812 5.179688 14.519531 5.085938 L 13.144531 5.816406 C 13.0625 5.859375 13.03125 5.957031 13.074219 6.039062 L 15.132812 9.90625 C 15.175781 9.988281 15.273438 10.019531 15.355469 9.976562 L 21.0625 6.941406 C 21.144531 6.898438 21.171875 6.800781 21.128906 6.71875 L 19.070312 2.851562 C 19.027344 2.769531 18.929688 2.738281 18.847656 2.78125 Z M 18.105469 8.261719 C 18.003906 8.316406 17.878906 8.277344 17.824219 8.175781 C 17.769531 8.078125 17.808594 7.949219 17.910156 7.898438 C 18.011719 7.84375 18.136719 7.882812 18.191406 7.984375 C 18.242188 8.078125 18.207031 8.210938 18.105469 8.261719 Z M 18.105469 8.261719 " fill-opacity="1" fill-rule="nonzero"/></g></g></g><g clip-path="url(#d2d493270c)"><g clip-path="url(#b1aae26d94)"><g clip-path="url(#12b11d3037)"><path fill="#bf5e22" d="M 19.921875 8.679688 L 19.996094 8.820312 C 20.011719 8.851562 20 8.890625 19.96875 8.90625 L 17.59375 10.167969 C 17.5625 10.183594 17.527344 10.171875 17.507812 10.140625 L 17.433594 10.003906 C 17.417969 9.972656 17.429688 9.933594 17.460938 9.917969 L 17.882812 9.691406 L 17.660156 8.992188 L 18.964844 8.300781 L 19.417969 8.875 L 19.839844 8.652344 C 19.867188 8.636719 19.90625 8.648438 19.921875 8.679688 Z M 19.921875 8.679688 " fill-opacity="1" fill-rule="nonzero"/></g></g></g><g clip-path="url(#8c9e901a64)"><g clip-path="url(#92c08981e7)"><g clip-path="url(#3fd5a70918)"><path fill="#bf5e22" d="M 18.308594 3.855469 L 18.148438 3.917969 C 18.089844 3.941406 18.019531 3.929688 17.960938 3.886719 C 17.914062 3.839844 17.890625 3.777344 17.894531 3.710938 L 17.925781 3.542969 C 17.925781 3.515625 17.914062 3.492188 17.886719 3.480469 L 17.644531 3.40625 C 17.613281 3.398438 17.589844 3.414062 17.578125 3.433594 L 17.507812 3.59375 C 17.484375 3.65625 17.421875 3.695312 17.351562 3.699219 C 17.285156 3.710938 17.222656 3.679688 17.183594 3.628906 L 17.101562 3.484375 C 17.089844 3.460938 17.054688 3.453125 17.035156 3.464844 L 16.808594 3.585938 C 16.78125 3.597656 16.773438 3.628906 16.785156 3.652344 L 16.847656 3.816406 C 16.871094 3.875 16.859375 3.945312 16.8125 3.996094 C 16.769531 4.050781 16.710938 4.074219 16.640625 4.0625 L 16.46875 4.03125 C 16.445312 4.03125 16.417969 4.042969 16.410156 4.070312 L 16.335938 4.3125 C 16.328125 4.34375 16.339844 4.367188 16.363281 4.378906 L 16.523438 4.449219 C 16.582031 4.472656 16.621094 4.535156 16.628906 4.601562 C 16.632812 4.671875 16.609375 4.734375 16.550781 4.773438 L 16.40625 4.875 C 16.382812 4.886719 16.375 4.921875 16.386719 4.941406 L 16.507812 5.167969 C 16.519531 5.195312 16.550781 5.203125 16.574219 5.191406 L 16.738281 5.128906 C 16.796875 5.105469 16.867188 5.117188 16.921875 5.160156 C 16.976562 5.203125 16.996094 5.265625 16.992188 5.332031 L 16.957031 5.496094 C 16.953125 5.523438 16.96875 5.546875 16.996094 5.558594 L 17.238281 5.628906 C 17.269531 5.640625 17.292969 5.625 17.304688 5.601562 L 17.375 5.445312 C 17.398438 5.382812 17.457031 5.34375 17.527344 5.339844 C 17.59375 5.328125 17.660156 5.359375 17.699219 5.417969 L 17.800781 5.558594 C 17.8125 5.585938 17.847656 5.589844 17.867188 5.578125 L 18.09375 5.457031 C 18.121094 5.445312 18.128906 5.417969 18.113281 5.390625 L 18.054688 5.230469 C 18.03125 5.167969 18.039062 5.097656 18.085938 5.042969 C 18.128906 4.988281 18.1875 4.964844 18.257812 4.976562 L 18.429688 5.007812 C 18.453125 5.007812 18.480469 4.996094 18.488281 4.964844 L 18.5625 4.722656 C 18.570312 4.695312 18.558594 4.671875 18.535156 4.65625 L 18.375 4.589844 C 18.316406 4.5625 18.273438 4.503906 18.269531 4.433594 C 18.265625 4.363281 18.289062 4.300781 18.347656 4.261719 L 18.492188 4.164062 C 18.511719 4.144531 18.519531 4.113281 18.511719 4.09375 L 18.390625 3.867188 C 18.363281 3.851562 18.335938 3.839844 18.308594 3.855469 Z M 17.671875 4.953125 C 17.433594 5.082031 17.132812 4.992188 17.003906 4.75 C 16.878906 4.511719 16.96875 4.210938 17.210938 4.082031 C 17.449219 3.957031 17.75 4.046875 17.875 4.289062 C 18.003906 4.527344 17.914062 4.828125 17.671875 4.953125 Z M 17.671875 4.953125 " fill-opacity="1" fill-rule="nonzero"/></g></g></g><g clip-path="url(#1ba8e51472)"><g clip-path="url(#1f71a36b19)"><g clip-path="url(#2eae98d9f6)"><path fill="#bf5e22" d="M 17.304688 4.261719 C 17.160156 4.335938 17.105469 4.511719 17.183594 4.65625 C 17.257812 4.800781 17.433594 4.855469 17.578125 4.777344 C 17.722656 4.699219 17.777344 4.527344 17.699219 4.382812 C 17.621094 4.238281 17.449219 4.183594 17.304688 4.261719 Z M 17.304688 4.261719 " fill-opacity="1" fill-rule="nonzero"/></g></g></g><g clip-path="url(#b42bdfa254)"><g clip-path="url(#73b0558c3b)"><g clip-path="url(#7a1396812b)"><path fill="#bf5e22" d="M 17.164062 5.824219 L 17.003906 5.886719 C 16.941406 5.910156 16.871094 5.898438 16.816406 5.855469 C 16.765625 5.808594 16.742188 5.75 16.746094 5.679688 L 16.777344 5.511719 C 16.78125 5.484375 16.765625 5.460938 16.738281 5.453125 L 16.496094 5.378906 C 16.46875 5.367188 16.441406 5.382812 16.429688 5.40625 L 16.359375 5.5625 C 16.335938 5.625 16.277344 5.664062 16.207031 5.667969 C 16.140625 5.679688 16.074219 5.648438 16.039062 5.597656 L 15.9375 5.457031 C 15.925781 5.429688 15.890625 5.425781 15.871094 5.433594 L 15.644531 5.554688 C 15.617188 5.570312 15.609375 5.597656 15.625 5.625 L 15.683594 5.785156 C 15.710938 5.84375 15.699219 5.914062 15.652344 5.964844 C 15.609375 6.019531 15.546875 6.042969 15.476562 6.03125 L 15.308594 6.003906 C 15.28125 6 15.257812 6.011719 15.246094 6.042969 L 15.1875 6.285156 C 15.179688 6.3125 15.195312 6.335938 15.214844 6.351562 L 15.375 6.417969 C 15.4375 6.441406 15.476562 6.503906 15.480469 6.574219 C 15.484375 6.644531 15.460938 6.703125 15.402344 6.746094 L 15.261719 6.84375 C 15.234375 6.859375 15.230469 6.894531 15.242188 6.910156 L 15.359375 7.140625 C 15.375 7.164062 15.402344 7.171875 15.429688 7.160156 L 15.589844 7.097656 C 15.652344 7.074219 15.722656 7.085938 15.777344 7.128906 C 15.832031 7.171875 15.847656 7.234375 15.84375 7.304688 L 15.816406 7.464844 C 15.8125 7.488281 15.828125 7.515625 15.855469 7.523438 L 16.097656 7.597656 C 16.128906 7.605469 16.152344 7.59375 16.164062 7.570312 L 16.234375 7.410156 C 16.257812 7.351562 16.316406 7.308594 16.386719 7.304688 C 16.457031 7.292969 16.519531 7.324219 16.558594 7.382812 L 16.660156 7.523438 C 16.671875 7.550781 16.707031 7.554688 16.726562 7.546875 L 16.953125 7.425781 C 16.980469 7.410156 16.988281 7.382812 16.976562 7.359375 L 16.914062 7.195312 C 16.890625 7.136719 16.902344 7.066406 16.945312 7.011719 C 16.988281 6.953125 17.046875 6.929688 17.117188 6.941406 L 17.289062 6.972656 C 17.3125 6.976562 17.339844 6.960938 17.347656 6.933594 L 17.421875 6.691406 C 17.429688 6.660156 17.417969 6.636719 17.394531 6.625 L 17.234375 6.554688 C 17.175781 6.53125 17.136719 6.472656 17.128906 6.402344 C 17.125 6.332031 17.148438 6.269531 17.207031 6.230469 L 17.351562 6.128906 C 17.371094 6.109375 17.382812 6.082031 17.371094 6.0625 L 17.25 5.835938 C 17.21875 5.820312 17.1875 5.8125 17.164062 5.824219 Z M 16.53125 6.921875 C 16.292969 7.046875 15.992188 6.957031 15.867188 6.71875 C 15.738281 6.476562 15.828125 6.175781 16.070312 6.050781 C 16.308594 5.921875 16.609375 6.015625 16.734375 6.253906 C 16.859375 6.496094 16.773438 6.792969 16.53125 6.921875 Z M 16.53125 6.921875 " fill-opacity="1" fill-rule="nonzero"/></g></g></g><g clip-path="url(#d0e65e0685)"><g clip-path="url(#7002fffc7a)"><g clip-path="url(#f8177c543b)"><path fill="#bf5e22" d="M 16.164062 6.226562 C 16.019531 6.304688 15.964844 6.476562 16.042969 6.625 C 16.121094 6.769531 16.292969 6.820312 16.4375 6.746094 C 16.582031 6.667969 16.636719 6.492188 16.558594 6.347656 C 16.480469 6.203125 16.308594 6.148438 16.164062 6.226562 Z M 16.164062 6.226562 " fill-opacity="1" fill-rule="nonzero"/></g></g></g><g clip-path="url(#52802e617e)"><g clip-path="url(#274243067c)"><g clip-path="url(#6380935071)"><path fill="#bf5e22" d="M 16.195312 4.460938 L 16.066406 4.449219 C 16.015625 4.441406 15.976562 4.414062 15.960938 4.367188 C 15.9375 4.324219 15.941406 4.273438 15.976562 4.230469 L 16.050781 4.125 C 16.058594 4.113281 16.0625 4.085938 16.046875 4.070312 L 15.90625 3.945312 C 15.886719 3.945312 15.863281 3.941406 15.855469 3.953125 L 15.757812 4.035156 C 15.722656 4.074219 15.675781 4.074219 15.625 4.058594 C 15.578125 4.042969 15.546875 4.003906 15.535156 3.953125 L 15.519531 3.824219 C 15.515625 3.804688 15.496094 3.789062 15.476562 3.792969 L 15.285156 3.796875 C 15.269531 3.796875 15.253906 3.8125 15.246094 3.832031 L 15.234375 3.960938 C 15.226562 4.011719 15.199219 4.050781 15.152344 4.066406 C 15.109375 4.089844 15.058594 4.085938 15.019531 4.058594 L 14.914062 3.984375 C 14.898438 3.96875 14.875 3.972656 14.859375 3.988281 L 14.730469 4.128906 C 14.714844 4.144531 14.71875 4.167969 14.726562 4.179688 L 14.808594 4.273438 C 14.839844 4.316406 14.847656 4.359375 14.832031 4.410156 C 14.816406 4.457031 14.777344 4.488281 14.726562 4.496094 L 14.597656 4.515625 C 14.574219 4.519531 14.566406 4.535156 14.5625 4.558594 L 14.570312 4.742188 C 14.574219 4.765625 14.589844 4.773438 14.609375 4.777344 L 14.734375 4.792969 C 14.789062 4.796875 14.828125 4.824219 14.84375 4.871094 C 14.867188 4.917969 14.863281 4.96875 14.835938 5.007812 L 14.761719 5.109375 C 14.746094 5.128906 14.75 5.148438 14.765625 5.164062 L 14.898438 5.296875 C 14.914062 5.3125 14.9375 5.308594 14.949219 5.300781 L 15.050781 5.214844 C 15.089844 5.179688 15.136719 5.179688 15.183594 5.191406 C 15.234375 5.207031 15.261719 5.25 15.273438 5.300781 L 15.292969 5.425781 C 15.296875 5.449219 15.3125 5.464844 15.335938 5.460938 L 15.527344 5.457031 C 15.542969 5.457031 15.566406 5.4375 15.5625 5.421875 L 15.578125 5.292969 C 15.582031 5.242188 15.609375 5.203125 15.65625 5.183594 C 15.703125 5.160156 15.753906 5.164062 15.792969 5.195312 L 15.894531 5.269531 C 15.914062 5.285156 15.933594 5.28125 15.949219 5.261719 L 16.078125 5.121094 C 16.09375 5.105469 16.089844 5.082031 16.082031 5.070312 L 16 4.976562 C 15.964844 4.941406 15.964844 4.890625 15.976562 4.84375 C 15.992188 4.796875 16.035156 4.765625 16.085938 4.753906 L 16.210938 4.734375 C 16.234375 4.730469 16.242188 4.71875 16.246094 4.691406 L 16.238281 4.511719 C 16.230469 4.480469 16.214844 4.464844 16.195312 4.460938 Z M 15.421875 4.984375 C 15.222656 4.992188 15.058594 4.835938 15.050781 4.640625 C 15.042969 4.441406 15.199219 4.277344 15.398438 4.269531 C 15.597656 4.261719 15.757812 4.417969 15.769531 4.617188 C 15.773438 4.808594 15.621094 4.976562 15.421875 4.984375 Z M 15.421875 4.984375 " fill-opacity="1" fill-rule="nonzero"/></g></g></g><g clip-path="url(#fc24d5681e)"><g clip-path="url(#6bb4cc31e0)"><g clip-path="url(#e6a636a04c)"><path fill="#bf5e22" d="M 15.40625 4.402344 C 15.285156 4.410156 15.191406 4.507812 15.199219 4.625 C 15.203125 4.746094 15.304688 4.839844 15.421875 4.832031 C 15.539062 4.824219 15.632812 4.726562 15.628906 4.609375 C 15.625 4.496094 15.527344 4.402344 15.40625 4.402344 Z M 15.40625 4.402344 " fill-opacity="1" fill-rule="nonzero"/></g></g></g><g clip-path="url(#fbaa6a7288)"><path fill="#bf5e22" d="M 41.199219 12.265625 C 41.09375 12.863281 40.972656 13.371094 40.828125 13.808594 L 41.058594 15.523438 C 41.113281 15.519531 41.164062 15.515625 41.214844 15.511719 C 41.675781 15.476562 42.125 15.40625 42.363281 15.332031 C 42.371094 15.175781 42.375 15.023438 42.375 14.882812 C 42.375 14.519531 42.351562 14.234375 42.3125 14.003906 L 42.480469 13.960938 C 42.519531 14.207031 42.546875 14.507812 42.546875 14.882812 C 42.546875 15.058594 42.542969 15.246094 42.527344 15.453125 C 42.523438 15.453125 42.519531 15.457031 42.511719 15.457031 C 42.277344 15.554688 41.75 15.640625 41.230469 15.679688 C 40.707031 15.722656 40.171875 15.730469 39.84375 15.730469 C 39.734375 15.730469 39.648438 15.730469 39.589844 15.730469 C 39.53125 15.726562 39.503906 15.726562 39.503906 15.726562 C 39.160156 15.71875 38.875 15.988281 38.867188 16.332031 C 38.859375 16.675781 39.128906 16.960938 39.472656 16.96875 C 39.476562 16.96875 39.617188 16.972656 39.84375 16.972656 C 40.3125 16.972656 41.136719 16.957031 41.890625 16.859375 C 42.273438 16.808594 42.628906 16.742188 42.953125 16.621094 C 43.113281 16.558594 43.269531 16.484375 43.425781 16.351562 C 43.574219 16.226562 43.734375 16.003906 43.753906 15.722656 C 43.777344 15.421875 43.789062 15.140625 43.789062 14.882812 C 43.789062 14.402344 43.75 13.992188 43.683594 13.640625 C 43.570312 13.046875 43.367188 12.621094 43.109375 12.308594 C 42.902344 12.066406 42.664062 11.914062 42.453125 11.832031 C 42.265625 11.757812 42.101562 11.738281 41.996094 11.734375 C 41.980469 11.734375 41.96875 11.730469 41.953125 11.730469 L 41.101562 11.730469 C 41.195312 11.886719 41.230469 12.074219 41.199219 12.265625 Z M 41.199219 12.265625 " fill-opacity="1" fill-rule="nonzero"/></g><path fill="#bf5e22" d="M 39.679688 15.558594 L 39.679688 15.554688 C 39.679688 15.554688 39.675781 15.558594 39.671875 15.558594 C 39.675781 15.558594 39.679688 15.558594 39.679688 15.558594 Z M 39.679688 15.558594 " fill-opacity="1" fill-rule="nonzero"/><g clip-path="url(#efb90114fd)"><path fill="#bf5e22" d="M 40.691406 17.125 L 40.453125 17.425781 L 40.226562 17.140625 C 40.101562 17.140625 39.972656 17.144531 39.84375 17.144531 C 39.640625 17.144531 39.507812 17.140625 39.476562 17.140625 L 39.46875 17.140625 C 39.253906 17.132812 39.058594 17.046875 38.914062 16.894531 C 38.765625 16.742188 38.691406 16.539062 38.695312 16.328125 C 38.699219 16.105469 38.796875 15.90625 38.949219 15.765625 C 38.71875 15.765625 38.519531 15.707031 38.355469 15.628906 L 38.355469 25.25 C 38.355469 25.78125 38.785156 26.210938 39.316406 26.210938 C 39.84375 26.210938 40.273438 25.78125 40.273438 25.25 L 40.273438 18.242188 L 40.636719 18.242188 L 40.636719 25.25 C 40.636719 25.78125 41.066406 26.210938 41.59375 26.210938 C 42.125 26.210938 42.554688 25.78125 42.554688 25.25 L 42.554688 16.917969 C 42.328125 16.96875 42.105469 17.003906 41.914062 17.03125 C 41.558594 17.074219 41.144531 17.109375 40.691406 17.125 Z M 40.691406 17.125 " fill-opacity="1" fill-rule="nonzero"/></g><g clip-path="url(#6ccd62648a)"><path fill="#bf5e22" d="M 37.679688 14.757812 C 37.722656 14.828125 37.773438 14.898438 37.824219 14.96875 C 37.921875 15.097656 38.035156 15.214844 38.167969 15.320312 C 38.371094 15.472656 38.640625 15.59375 38.949219 15.59375 C 38.949219 15.59375 38.953125 15.59375 38.953125 15.59375 C 39.222656 15.59375 39.496094 15.492188 39.714844 15.328125 C 40.042969 15.074219 40.285156 14.707031 40.496094 14.210938 C 40.707031 13.710938 40.886719 13.070312 41.03125 12.234375 C 41.089844 11.898438 40.863281 11.578125 40.523438 11.519531 C 40.1875 11.457031 39.867188 11.683594 39.804688 12.023438 C 39.628906 13.050781 39.398438 13.703125 39.199219 14.042969 C 39.101562 14.210938 39.011719 14.300781 38.96875 14.332031 C 38.957031 14.339844 38.953125 14.34375 38.945312 14.347656 C 38.914062 14.328125 38.824219 14.253906 38.75 14.125 C 38.746094 14.113281 38.738281 14.105469 38.734375 14.097656 L 38.859375 13.976562 C 38.871094 13.996094 38.882812 14.015625 38.898438 14.035156 C 38.914062 14.066406 38.929688 14.089844 38.945312 14.113281 C 38.976562 14.074219 39.011719 14.023438 39.050781 13.957031 C 39.277344 13.574219 39.488281 12.859375 39.636719 11.996094 C 39.65625 11.898438 39.6875 11.8125 39.734375 11.730469 L 38.957031 11.730469 C 38.933594 11.730469 38.914062 11.734375 38.890625 11.734375 C 38.410156 11.75 37.96875 11.949219 37.699219 12.28125 C 37.410156 12.632812 37.316406 13.050781 37.316406 13.433594 C 37.320312 13.90625 37.449219 14.363281 37.679688 14.757812 Z M 37.679688 14.757812 " fill-opacity="1" fill-rule="nonzero"/></g><g clip-path="url(#3e61df4848)"><path fill="#bf5e22" d="M 40.457031 11.289062 C 41.421875 11.289062 42.203125 10.507812 42.203125 9.542969 C 42.203125 8.578125 41.421875 7.796875 40.457031 7.796875 C 39.492188 7.796875 38.707031 8.578125 38.707031 9.542969 C 38.707031 10.507812 39.492188 11.289062 40.457031 11.289062 Z M 40.960938 10 C 41.113281 10 41.277344 10.019531 41.460938 10.074219 L 41.398438 10.296875 C 41.234375 10.25 41.089844 10.230469 40.960938 10.230469 C 40.402344 10.230469 40.121094 10.589844 40.0625 10.671875 C 40.054688 10.683594 40.054688 10.6875 40.054688 10.6875 L 40.050781 10.6875 C 40.050781 10.6875 40.054688 10.6875 40.054688 10.6875 L 39.851562 10.570312 C 39.859375 10.554688 40.195312 10 40.960938 10 Z M 40.960938 10 " fill-opacity="1" fill-rule="nonzero"/></g><g clip-path="url(#4477387282)"><path fill="#bf5e22" d="M 60.5 7.640625 C 60.730469 7.691406 60.9375 7.785156 61.128906 7.921875 C 61.316406 8.058594 61.472656 8.226562 61.597656 8.421875 C 61.71875 8.621094 61.800781 8.835938 61.839844 9.066406 C 61.878906 9.296875 61.871094 9.527344 61.816406 9.753906 C 61.765625 9.980469 61.667969 10.1875 61.535156 10.378906 C 61.398438 10.570312 61.230469 10.726562 61.03125 10.847656 C 60.835938 10.972656 60.621094 11.054688 60.390625 11.089844 C 60.160156 11.128906 59.929688 11.121094 59.703125 11.070312 C 59.476562 11.015625 59.265625 10.921875 59.078125 10.785156 C 58.886719 10.648438 58.730469 10.480469 58.605469 10.285156 C 58.484375 10.085938 58.402344 9.871094 58.363281 9.640625 C 58.328125 9.410156 58.335938 9.183594 58.386719 8.953125 C 58.441406 8.726562 58.535156 8.519531 58.671875 8.328125 C 58.808594 8.140625 58.972656 7.984375 59.171875 7.859375 C 59.371094 7.734375 59.585938 7.65625 59.816406 7.617188 C 60.046875 7.578125 60.273438 7.585938 60.5 7.640625 Z M 60.5 7.640625 " fill-opacity="1" fill-rule="nonzero"/></g><g clip-path="url(#ba4ac413f8)"><path fill="#bf5e22" d="M 54.023438 10.914062 C 54.023438 10.917969 54.035156 10.9375 54.066406 10.960938 C 54.089844 10.976562 54.15625 11.023438 54.234375 11.074219 C 54.609375 11.316406 55.445312 11.859375 55.867188 12.460938 C 55.875 12.460938 55.878906 12.464844 55.882812 12.464844 C 56.714844 12.714844 57.464844 12.828125 57.984375 12.875 L 57.984375 17.550781 L 57.347656 25.167969 C 57.300781 25.703125 57.699219 26.167969 58.230469 26.214844 C 58.761719 26.257812 59.230469 25.863281 59.273438 25.332031 L 59.871094 18.199219 L 60.332031 18.199219 L 60.929688 25.332031 C 60.972656 25.863281 61.441406 26.257812 61.972656 26.214844 C 62.507812 26.167969 62.902344 25.703125 62.855469 25.167969 L 62.21875 17.550781 L 62.21875 12.875 C 62.679688 12.835938 63.320312 12.738281 64.039062 12.546875 C 64.230469 12.207031 64.46875 11.867188 64.769531 11.53125 C 65.023438 11.25 65.3125 11.160156 65.621094 11.0625 C 65.871094 10.984375 66.128906 10.90625 66.417969 10.714844 C 66.402344 10.597656 66.359375 10.367188 66.210938 10.128906 C 65.554688 10.664062 64.734375 11.035156 63.960938 11.265625 C 62.953125 11.570312 62.011719 11.648438 61.726562 11.648438 C 61.722656 11.648438 61.722656 11.648438 61.71875 11.648438 C 61.683594 11.640625 61.648438 11.636719 61.613281 11.636719 L 58.589844 11.636719 C 58.554688 11.636719 58.519531 11.640625 58.484375 11.648438 C 58.480469 11.648438 58.480469 11.648438 58.476562 11.648438 C 58.191406 11.648438 57.25 11.570312 56.242188 11.265625 C 55.652344 11.089844 55.035156 10.832031 54.484375 10.480469 C 54.472656 10.488281 54.464844 10.496094 54.453125 10.503906 C 54.285156 10.632812 54.023438 10.832031 54.023438 10.914062 Z M 60.242188 17.144531 L 60.105469 17.316406 L 59.960938 17.132812 L 59.363281 16.375 L 59.515625 15.269531 L 59.792969 13.21875 C 59.894531 13.257812 60 13.277344 60.105469 13.277344 L 60.109375 13.277344 C 60.214844 13.277344 60.320312 13.257812 60.421875 13.21875 L 60.699219 15.261719 L 60.851562 16.375 Z M 59.808594 12.265625 L 60.40625 12.265625 L 60.554688 12.855469 L 60.53125 12.890625 C 60.410156 12.992188 60.257812 13.042969 60.105469 13.042969 C 59.957031 13.042969 59.804688 12.992188 59.683594 12.890625 L 59.660156 12.855469 Z M 59.808594 12.265625 " fill-opacity="1" fill-rule="nonzero"/></g><path fill="#bf5e22" d="M 52.386719 9.742188 C 52.296875 9.953125 52.324219 10.203125 52.480469 10.390625 C 52.597656 10.53125 52.71875 10.660156 52.84375 10.78125 C 52.882812 10.761719 52.917969 10.738281 52.953125 10.714844 C 52.933594 10.53125 52.835938 10.070312 52.386719 9.742188 Z M 52.386719 9.742188 " fill-opacity="1" fill-rule="nonzero"/><path fill="#bf5e22" d="M 55.847656 12.71875 C 55.785156 12.605469 55.703125 12.488281 55.605469 12.375 C 55.066406 11.738281 54.105469 11.191406 53.96875 11.082031 C 53.714844 10.882812 53.984375 10.667969 54.34375 10.390625 C 54.523438 10.25 54.726562 10.097656 54.894531 9.921875 C 55.398438 9.398438 54.242188 9.070312 54.03125 9.265625 C 53.847656 9.433594 53.4375 9.542969 53.203125 9.144531 C 52.96875 8.75 51.292969 9.058594 52.121094 9.410156 C 52.253906 9.46875 52.367188 9.535156 52.464844 9.605469 C 53.117188 10.074219 53.117188 10.789062 53.117188 10.789062 C 53.066406 10.828125 53.015625 10.859375 52.964844 10.890625 C 52.332031 11.28125 51.820312 11.191406 51.421875 11.636719 C 49.417969 13.875 50.121094 16.371094 51.066406 17.238281 C 52.210938 18.292969 52.976562 18.5625 55.511719 17.582031 C 56.585938 17.167969 56.417969 13.769531 55.847656 12.71875 Z M 50.671875 14.035156 C 50.632812 15.226562 50.816406 15.597656 51.421875 16.625 C 50.007812 15.820312 50.671875 14.035156 50.671875 14.035156 Z M 51.074219 12.839844 C 51.367188 11.242188 53.273438 11.277344 53.273438 11.277344 C 52.121094 11.476562 51.84375 11.929688 51.074219 12.839844 Z M 54.9375 15.117188 C 54.746094 15.253906 54.519531 15.339844 54.277344 15.382812 C 54.285156 15.601562 54.285156 15.824219 54.285156 16.042969 C 54.285156 16.210938 53.894531 16.183594 53.894531 16.015625 C 53.894531 15.808594 53.890625 15.609375 53.882812 15.414062 C 53.527344 15.414062 53.171875 15.335938 52.882812 15.203125 C 52.644531 15.09375 52.878906 14.960938 53.050781 15.039062 C 53.265625 15.136719 53.574219 15.1875 53.867188 15.175781 C 53.851562 14.964844 53.828125 14.757812 53.792969 14.554688 C 53.359375 14.46875 52.894531 14.296875 52.792969 13.933594 C 52.710938 13.640625 53.007812 13.410156 53.402344 13.289062 C 53.328125 13.136719 53.25 12.988281 53.15625 12.835938 C 53.046875 12.660156 53.421875 12.609375 53.503906 12.742188 C 53.597656 12.894531 53.6875 13.050781 53.769531 13.210938 C 54.21875 13.15625 54.679688 13.242188 54.796875 13.542969 C 54.867188 13.722656 54.492188 13.664062 54.441406 13.535156 C 54.382812 13.386719 54.144531 13.398438 53.890625 13.464844 C 54.023438 13.757812 54.125 14.0625 54.183594 14.382812 C 54.28125 14.398438 54.359375 14.40625 54.402344 14.410156 C 54.832031 14.464844 55.539062 14.671875 54.9375 15.117188 Z M 54.9375 15.117188 " fill-opacity="1" fill-rule="nonzero"/><path fill="#bf5e22" d="M 54.789062 14.703125 C 54.652344 14.664062 54.507812 14.652344 54.367188 14.636719 C 54.324219 14.632812 54.273438 14.628906 54.21875 14.621094 C 54.242188 14.785156 54.253906 14.945312 54.265625 15.109375 C 54.347656 15.082031 54.421875 15.050781 54.488281 15.011719 C 54.519531 14.988281 54.902344 14.734375 54.789062 14.703125 Z M 54.789062 14.703125 " fill-opacity="1" fill-rule="nonzero"/><path fill="#bf5e22" d="M 53.261719 13.746094 C 52.972656 14.023438 53.34375 14.195312 53.742188 14.296875 C 53.691406 14.058594 53.621094 13.824219 53.53125 13.59375 C 53.40625 13.648438 53.308594 13.707031 53.261719 13.746094 Z M 53.261719 13.746094 " fill-opacity="1" fill-rule="nonzero"/><path fill="#bf5e22" d="M 67.949219 15.011719 C 67.984375 14.988281 68.363281 14.734375 68.253906 14.703125 C 68.113281 14.664062 67.96875 14.652344 67.828125 14.636719 C 67.785156 14.632812 67.734375 14.628906 67.683594 14.621094 C 67.703125 14.785156 67.71875 14.945312 67.726562 15.109375 C 67.808594 15.082031 67.882812 15.050781 67.949219 15.011719 Z M 67.949219 15.011719 " fill-opacity="1" fill-rule="nonzero"/><path fill="#bf5e22" d="M 66.726562 13.746094 C 66.433594 14.023438 66.804688 14.195312 67.203125 14.296875 C 67.152344 14.058594 67.085938 13.824219 66.996094 13.59375 C 66.871094 13.648438 66.769531 13.707031 66.726562 13.746094 Z M 66.726562 13.746094 " fill-opacity="1" fill-rule="nonzero"/><g clip-path="url(#1161fc80bf)"><path fill="#bf5e22" d="M 64.886719 11.636719 C 64.632812 11.917969 64.425781 12.199219 64.253906 12.484375 C 63.058594 14.472656 63.699219 16.480469 64.527344 17.238281 C 65.671875 18.292969 66.4375 18.5625 68.972656 17.582031 C 70.046875 17.167969 69.878906 13.769531 69.308594 12.71875 C 68.890625 11.945312 67.59375 11.210938 67.429688 11.082031 C 67.046875 10.78125 67.855469 10.445312 68.355469 9.921875 C 68.859375 9.398438 67.703125 9.070312 67.492188 9.265625 C 67.449219 9.304688 67.394531 9.34375 67.328125 9.371094 C 67.234375 9.410156 67.121094 9.429688 67.011719 9.40625 C 66.882812 9.382812 66.761719 9.308594 66.664062 9.144531 C 66.433594 8.75 64.757812 9.058594 65.585938 9.414062 C 65.953125 9.570312 66.183594 9.800781 66.332031 10.027344 C 66.578125 10.414062 66.578125 10.789062 66.578125 10.789062 C 65.875 11.300781 65.316406 11.15625 64.886719 11.636719 Z M 64.132812 14.035156 C 64.160156 15.265625 64.277344 15.597656 64.882812 16.625 C 63.472656 15.820312 64.132812 14.035156 64.132812 14.035156 Z M 64.535156 12.839844 C 64.570312 12.652344 64.628906 12.488281 64.703125 12.339844 C 65.253906 11.25 66.734375 11.277344 66.734375 11.277344 C 65.890625 11.421875 65.515625 11.707031 65.074219 12.203125 C 64.914062 12.386719 64.742188 12.597656 64.535156 12.839844 Z M 68.257812 13.542969 C 68.332031 13.722656 67.953125 13.664062 67.902344 13.539062 C 67.847656 13.386719 67.605469 13.398438 67.351562 13.464844 C 67.484375 13.757812 67.589844 14.0625 67.644531 14.382812 C 67.742188 14.398438 67.820312 14.40625 67.863281 14.414062 C 68.296875 14.464844 69 14.671875 68.398438 15.117188 C 68.210938 15.253906 67.980469 15.339844 67.738281 15.382812 C 67.746094 15.601562 67.746094 15.824219 67.746094 16.042969 C 67.75 16.210938 67.359375 16.183594 67.359375 16.015625 C 67.359375 15.808594 67.355469 15.609375 67.34375 15.414062 C 66.992188 15.414062 66.632812 15.335938 66.34375 15.203125 C 66.105469 15.09375 66.339844 14.960938 66.511719 15.039062 C 66.726562 15.136719 67.035156 15.1875 67.328125 15.175781 C 67.3125 14.964844 67.289062 14.757812 67.253906 14.554688 C 66.820312 14.46875 66.355469 14.296875 66.253906 13.933594 C 66.171875 13.640625 66.46875 13.410156 66.863281 13.289062 C 66.792969 13.136719 66.710938 12.988281 66.621094 12.835938 C 66.507812 12.660156 66.886719 12.609375 66.964844 12.742188 C 67.058594 12.894531 67.148438 13.050781 67.230469 13.210938 C 67.683594 13.15625 68.144531 13.242188 68.257812 13.542969 Z M 68.257812 13.542969 " fill-opacity="1" fill-rule="nonzero"/></g><g clip-path="url(#b2ab6a227f)"><path fill="#bf5e22" d="M 77.871094 6.566406 L 77.871094 8.523438 L 73.8125 12.914062 C 73.828125 12.910156 73.847656 12.910156 73.867188 12.910156 L 74.148438 12.910156 L 77.871094 8.886719 L 77.871094 12.910156 L 78.117188 12.910156 L 78.117188 8.886719 L 81.835938 12.910156 L 82.121094 12.910156 C 82.136719 12.910156 82.15625 12.910156 82.175781 12.914062 L 78.117188 8.523438 L 78.117188 6.566406 Z M 91.117188 10.78125 L 91.117188 12.539062 L 87.058594 16.800781 C 87.074219 16.800781 87.09375 16.796875 87.113281 16.796875 L 87.398438 16.796875 L 91.117188 12.894531 L 91.117188 16.796875 L 91.363281 16.796875 L 91.363281 12.894531 L 95.078125 16.796875 L 95.363281 16.796875 C 95.382812 16.796875 95.402344 16.800781 95.421875 16.800781 L 91.363281 12.539062 L 91.363281 10.78125 Z M 73.867188 13.03125 C 73.578125 13.03125 73.34375 13.265625 73.34375 13.558594 C 73.34375 13.847656 73.578125 14.082031 73.867188 14.082031 L 78.054688 14.082031 C 78.320312 13.929688 78.625 13.847656 78.929688 13.847656 C 79.234375 13.847656 79.539062 13.929688 79.804688 14.082031 L 82.121094 14.082031 C 82.410156 14.082031 82.644531 13.847656 82.644531 13.558594 C 82.644531 13.265625 82.410156 13.03125 82.121094 13.03125 Z M 78.929688 14.101562 C 78.105469 14.101562 77.4375 14.769531 77.4375 15.59375 C 77.4375 16.417969 78.105469 17.085938 78.929688 17.085938 C 79.753906 17.085938 80.421875 16.417969 80.421875 15.59375 C 80.421875 14.769531 79.753906 14.101562 78.929688 14.101562 Z M 73.738281 14.195312 C 73.632812 16.859375 74.515625 19.546875 76.1875 21.625 C 77.445312 23.183594 79.125 24.390625 81 25.085938 C 82.878906 25.777344 84.941406 25.953125 86.90625 25.585938 C 88.875 25.21875 90.734375 24.308594 92.230469 22.984375 C 93.710938 21.675781 94.832031 19.96875 95.441406 18.089844 C 95.417969 18.09375 95.390625 18.097656 95.363281 18.097656 L 87.113281 18.097656 C 87.089844 18.097656 87.070312 18.09375 87.046875 18.09375 C 87.035156 18.09375 87.027344 18.089844 87.015625 18.089844 C 87.003906 18.085938 86.992188 18.085938 86.984375 18.082031 C 86.96875 18.082031 86.953125 18.074219 86.9375 18.070312 C 86.933594 18.070312 86.925781 18.070312 86.921875 18.066406 C 86.902344 18.0625 86.886719 18.054688 86.867188 18.046875 C 86.867188 18.046875 86.867188 18.046875 86.863281 18.046875 C 86.84375 18.039062 86.828125 18.03125 86.808594 18.019531 C 86.773438 18 86.738281 17.976562 86.707031 17.953125 C 86.691406 17.9375 86.675781 17.925781 86.660156 17.910156 C 85.824219 18.171875 84.886719 18.105469 84.097656 17.726562 C 83.777344 17.570312 83.484375 17.363281 83.226562 17.117188 C 83.214844 17.136719 83.199219 17.152344 83.183594 17.167969 L 83.0625 17.300781 C 83.335938 17.5625 83.648438 17.78125 83.992188 17.949219 C 84.84375 18.359375 85.855469 18.425781 86.757812 18.136719 C 86.359375 18.757812 85.855469 19.3125 85.28125 19.777344 C 85.265625 19.835938 85.234375 19.882812 85.183594 19.921875 C 84.3125 20.570312 83.296875 21.03125 82.226562 21.230469 C 81.632812 21.34375 81.027344 21.375 80.429688 21.332031 C 80.394531 21.328125 80.359375 21.320312 80.328125 21.300781 C 78.875 21.167969 77.464844 20.589844 76.363281 19.632812 C 74.828125 18.292969 73.929688 16.242188 73.988281 14.207031 L 73.867188 14.207031 C 73.847656 14.207031 73.824219 14.207031 73.800781 14.203125 C 73.78125 14.203125 73.765625 14.199219 73.746094 14.195312 C 73.742188 14.195312 73.742188 14.195312 73.738281 14.195312 Z M 82.15625 14.203125 C 82.144531 14.207031 82.132812 14.207031 82.121094 14.207031 L 81.910156 14.207031 C 81.863281 14.65625 81.898438 15.117188 82.015625 15.554688 C 82.019531 15.578125 82.027344 15.601562 82.035156 15.625 C 82.167969 15.675781 82.21875 15.695312 82.328125 15.734375 C 82.300781 15.65625 82.273438 15.574219 82.25 15.492188 C 82.140625 15.074219 82.109375 14.632812 82.15625 14.203125 Z M 80.679688 15.390625 C 80.6875 15.460938 80.691406 15.527344 80.691406 15.59375 C 80.691406 15.867188 80.625 16.136719 80.503906 16.378906 C 80.957031 16.550781 81.421875 16.722656 81.773438 16.855469 C 81.773438 16.855469 80.964844 16.800781 80.582031 16.777344 C 80.472656 16.769531 80.304688 16.796875 80.207031 16.847656 C 80.082031 16.910156 79.910156 17 79.757812 17.082031 C 79.539062 17.199219 79.160156 17.3125 78.910156 17.332031 L 78.609375 17.355469 C 78.480469 17.363281 78.367188 17.414062 78.273438 17.503906 L 77.714844 18.035156 C 77.703125 18.035156 77.691406 18.035156 77.6875 18.035156 L 77.699219 18.046875 L 77.191406 17.878906 C 77.394531 17.644531 77.660156 17.34375 77.925781 17.039062 C 77.839844 16.980469 77.757812 16.914062 77.683594 16.839844 C 77.519531 16.675781 77.386719 16.472656 77.300781 16.257812 C 76.667969 16.976562 75.960938 17.789062 75.960938 17.789062 C 75.730469 18.054688 75.84375 18.46875 76.175781 18.578125 L 79.050781 19.539062 L 80.449219 21.078125 C 81.027344 21.117188 81.609375 21.085938 82.179688 20.980469 C 83.210938 20.785156 84.191406 20.34375 85.03125 19.714844 L 82.414062 17.613281 L 83 16.992188 C 83.238281 16.738281 83.144531 16.320312 82.816406 16.195312 C 82.816406 16.195312 81.625 15.742188 80.679688 15.390625 Z M 87.113281 16.921875 C 86.820312 16.921875 86.585938 17.15625 86.585938 17.449219 C 86.585938 17.738281 86.820312 17.972656 87.113281 17.972656 L 95.363281 17.972656 C 95.65625 17.972656 95.890625 17.738281 95.890625 17.449219 C 95.890625 17.15625 95.65625 16.921875 95.363281 16.921875 Z M 87.113281 16.921875 " fill-opacity="1" fill-rule="nonzero"/></g></svg>